<svg width="512" height="76" viewBox="0 0 512 76" fill="none" xmlns="http://www.w3.org/2000/svg">
<path d="M3 73V30.4204L34.3483 3H509V73H3Z" stroke="#0009FF" stroke-width="6"/>
<path d="M77.5183 49.224C76.6223 49.224 75.5396 49.1213 74.2703 48.916V42.812C74.6996 42.924 75.1383 43.0267 75.5863 43.12C76.0529 43.1947 76.4543 43.232 76.7903 43.232C78.7129 43.232 79.6743 42.3267 79.6743 40.516V29.4H86.1983V40.712C86.1983 43.4373 85.4423 45.5373 83.9303 47.012C82.4369 48.4867 80.2996 49.224 77.5183 49.224ZM88.8121 49V29.4H102.896V34.86H95.2521V36.764H102.084V41.552H95.2521V43.484H103.204V49H88.8121ZM109.662 49V35.112H104.622V29.4H121.226V35.112H116.186V49H109.662ZM122.542 49V44.548L129.318 35.112H122.934V29.4H138.222V33.656L131.334 43.232H138.39V49H122.542ZM144.826 49V35.112H139.786V29.4H156.39V35.112H151.35V49H144.826ZM173.847 49.42C171.607 49.42 169.657 49 167.995 48.16C166.353 47.32 165.083 46.1253 164.187 44.576C163.291 43.0267 162.843 41.1973 162.843 39.088C162.843 37.0347 163.301 35.252 164.215 33.74C165.13 32.2093 166.427 31.0333 168.107 30.212C169.806 29.3907 171.803 28.98 174.099 28.98C176.563 28.98 178.878 29.3253 181.043 30.016L179.195 35.896C178.243 35.56 177.366 35.3267 176.563 35.196C175.779 35.0467 174.977 34.972 174.155 34.972C172.606 34.972 171.439 35.3267 170.655 36.036C169.871 36.7267 169.479 37.744 169.479 39.088C169.479 40.5067 169.881 41.5987 170.683 42.364C171.505 43.1293 172.662 43.512 174.155 43.512C174.902 43.512 175.555 43.456 176.115 43.344V41.692H172.923V36.96H181.603V47.656C180.465 48.216 179.223 48.6547 177.879 48.972C176.535 49.2707 175.191 49.42 173.847 49.42ZM184.132 49V29.4H198.216V34.86H190.572V36.764H197.404V41.552H190.572V43.484H198.524V49H184.132ZM208.426 49.42C205.533 49.42 202.658 48.888 199.802 47.824L201.958 41.972C203.209 42.5507 204.403 42.9893 205.542 43.288C206.681 43.5867 207.67 43.736 208.51 43.736C209.051 43.736 209.443 43.68 209.686 43.568C209.929 43.4373 210.05 43.2413 210.05 42.98C210.05 42.7187 209.91 42.532 209.63 42.42C209.35 42.2893 208.893 42.1493 208.258 42C205.85 41.496 204.021 40.7307 202.77 39.704C201.538 38.6587 200.922 37.184 200.922 35.28C200.922 33.264 201.613 31.7147 202.994 30.632C204.394 29.5307 206.363 28.98 208.902 28.98C210.246 28.98 211.497 29.0733 212.654 29.26C213.83 29.428 215.081 29.708 216.406 30.1L214.586 36.008C212.383 35.0747 210.451 34.608 208.79 34.608C207.987 34.608 207.586 34.8227 207.586 35.252C207.586 35.4947 207.763 35.7 208.118 35.868C208.491 36.0173 209.098 36.176 209.938 36.344C212.234 36.848 213.942 37.604 215.062 38.612C216.201 39.6013 216.77 41.0107 216.77 42.84C216.77 44.9493 216.042 46.5733 214.586 47.712C213.13 48.8507 211.077 49.42 208.426 49.42ZM218.941 29.4H227.369C229.012 29.4 230.44 29.6987 231.653 30.296C232.885 30.8747 233.828 31.7147 234.481 32.816C235.153 33.8987 235.489 35.168 235.489 36.624C235.489 38.08 235.153 39.3493 234.481 40.432C233.828 41.5147 232.885 42.3547 231.653 42.952C230.44 43.5307 229.012 43.82 227.369 43.82H225.465V49H218.941V29.4ZM226.977 38.668C227.574 38.668 228.032 38.5093 228.349 38.192C228.685 37.8747 228.853 37.4173 228.853 36.82C228.853 36.2413 228.685 35.7933 228.349 35.476C228.032 35.1587 227.574 35 226.977 35H225.465V38.668H226.977ZM237.261 49V29.4H245.885C247.397 29.4 248.741 29.708 249.917 30.324C251.112 30.9213 252.036 31.7707 252.689 32.872C253.361 33.9547 253.697 35.1867 253.697 36.568C253.697 37.7253 253.464 38.78 252.997 39.732C252.549 40.6653 251.915 41.44 251.093 42.056L254.873 49H247.397L244.849 43.568H243.785V49H237.261ZM245.269 38.668C245.885 38.668 246.361 38.5093 246.697 38.192C247.033 37.8747 247.201 37.4173 247.201 36.82C247.201 36.2413 247.033 35.7933 246.697 35.476C246.361 35.1587 245.885 35 245.269 35H243.785V38.668H245.269ZM254.86 49L262.616 29.4H269.532L277.232 49H270.12L269.308 46.564H262.784L262.028 49H254.86ZM267.628 41.16L266.06 35.756L264.464 41.16H267.628ZM269.784 28C268.813 28 268.02 27.7107 267.404 27.132C266.807 26.5533 266.508 25.8067 266.508 24.892C266.508 23.9773 266.807 23.24 267.404 22.68C268.02 22.1013 268.813 21.812 269.784 21.812C270.755 21.812 271.539 22.1013 272.136 22.68C272.752 23.24 273.06 23.9773 273.06 24.892C273.06 25.8067 272.752 26.5533 272.136 27.132C271.539 27.7107 270.755 28 269.784 28ZM262.364 28C261.412 28 260.628 27.7107 260.012 27.132C259.415 26.5533 259.116 25.8067 259.116 24.892C259.116 23.9773 259.415 23.24 260.012 22.68C260.628 22.1013 261.412 21.812 262.364 21.812C263.353 21.812 264.147 22.1013 264.744 22.68C265.36 23.24 265.668 23.9773 265.668 24.892C265.668 25.8067 265.36 26.5533 264.744 27.132C264.147 27.7107 263.353 28 262.364 28ZM288.037 49.42C285.89 49.42 283.986 49.0467 282.325 48.3C280.663 47.5347 279.357 46.3867 278.405 44.856C277.453 43.3067 276.977 41.4027 276.977 39.144C276.977 37.0533 277.434 35.2427 278.349 33.712C279.263 32.1813 280.551 31.0147 282.213 30.212C283.893 29.3907 285.834 28.98 288.037 28.98C290.463 28.98 292.685 29.3627 294.701 30.128L292.909 36.12C292.05 35.7653 291.229 35.4853 290.445 35.28C289.679 35.0747 288.905 34.972 288.121 34.972C285.134 34.972 283.641 36.344 283.641 39.088C283.641 40.4693 284.005 41.5427 284.733 42.308C285.479 43.0547 286.581 43.428 288.037 43.428C288.895 43.428 289.735 43.316 290.557 43.092C291.378 42.8493 292.237 42.4947 293.133 42.028L295.289 47.936C292.918 48.9253 290.501 49.42 288.037 49.42ZM308.241 49V41.608H303.285V49H296.761V29.4H303.285V35.896H308.241V29.4H314.765V49H308.241ZM323.504 49V29.4H332.492C334.657 29.4 336.365 29.8667 337.616 30.8C338.866 31.7333 339.492 32.9933 339.492 34.58C339.492 36.1293 338.838 37.5293 337.532 38.78C338.465 39.284 339.174 39.9467 339.66 40.768C340.164 41.5707 340.416 42.4853 340.416 43.512C340.416 44.632 340.089 45.6027 339.436 46.424C338.801 47.2453 337.886 47.88 336.692 48.328C335.516 48.776 334.125 49 332.52 49H323.504ZM332.408 43.904C332.837 43.904 333.173 43.7827 333.416 43.54C333.658 43.2973 333.78 42.98 333.78 42.588C333.78 42.196 333.658 41.888 333.416 41.664C333.173 41.4213 332.837 41.3 332.408 41.3H329.888V43.904H332.408ZM332.716 37.044C333.07 36.6333 333.248 36.1573 333.248 35.616C333.248 35.2427 333.126 34.9533 332.884 34.748C332.66 34.5427 332.324 34.44 331.876 34.44H329.888V37.044H332.716ZM350.601 49.42C348.903 49.42 347.428 49.1027 346.177 48.468C344.927 47.8333 343.956 46.9373 343.265 45.78C342.593 44.604 342.257 43.232 342.257 41.664V29.4H348.781V41.44C348.781 42.0747 348.931 42.5693 349.229 42.924C349.547 43.26 350.004 43.428 350.601 43.428C351.217 43.428 351.693 43.26 352.029 42.924C352.365 42.5693 352.533 42.0747 352.533 41.44V29.4H359.057V41.664C359.057 43.232 358.712 44.604 358.021 45.78C357.349 46.9373 356.369 47.8333 355.081 48.468C353.812 49.1027 352.319 49.42 350.601 49.42ZM372.119 49.42C369.972 49.42 368.068 49.0467 366.407 48.3C364.745 47.5347 363.439 46.3867 362.487 44.856C361.535 43.3067 361.059 41.4027 361.059 39.144C361.059 37.0533 361.516 35.2427 362.431 33.712C363.345 32.1813 364.633 31.0147 366.295 30.212C367.975 29.3907 369.916 28.98 372.119 28.98C374.545 28.98 376.767 29.3627 378.783 30.128L376.991 36.12C376.132 35.7653 375.311 35.4853 374.527 35.28C373.761 35.0747 372.987 34.972 372.203 34.972C369.216 34.972 367.723 36.344 367.723 39.088C367.723 40.4693 368.087 41.5427 368.815 42.308C369.561 43.0547 370.663 43.428 372.119 43.428C372.977 43.428 373.817 43.316 374.639 43.092C375.46 42.8493 376.319 42.4947 377.215 42.028L379.371 47.936C377 48.9253 374.583 49.42 372.119 49.42ZM392.323 49V41.608H387.367V49H380.843V29.4H387.367V35.896H392.323V29.4H398.847V49H392.323ZM401.652 49V29.4H415.736V34.86H408.092V36.764H414.924V41.552H408.092V43.484H416.044V49H401.652ZM418.414 49V29.4H424.546L430.734 38.472L430.566 34.636V29.4H436.782V49H430.762L424.434 40.096L424.63 44.352V49H418.414Z" fill="#0009FF"/>
</svg>
