<svg width="80" height="80" viewBox="0 0 80 80" fill="none" xmlns="http://www.w3.org/2000/svg">
<g id="solar:user-plus-broken">
<g id="Group">
<path id="Vector" d="M33.3333 33.3333C40.6971 33.3333 46.6667 27.3638 46.6667 20C46.6667 12.6362 40.6971 6.66663 33.3333 6.66663C25.9695 6.66663 20 12.6362 20 20C20 27.3638 25.9695 33.3333 33.3333 33.3333Z" stroke="black" stroke-width="6"/>
<path id="Vector_2" d="M70.0001 33.3333H63.3334M63.3334 33.3333H56.6667M63.3334 33.3333V26.6666M63.3334 33.3333V40M59.9934 60C59.9979 59.4533 60.0001 58.8977 60.0001 58.3333C60.0001 50.05 48.0601 43.3333 33.3334 43.3333C18.6067 43.3333 6.66675 50.05 6.66675 58.3333C6.66675 66.6166 6.66675 73.3333 33.3334 73.3333C40.7701 73.3333 46.1334 72.81 50.0001 71.8766" stroke="black" stroke-width="6" stroke-linecap="round"/>
</g>
</g>
</svg>
