<svg width="80" height="80" viewBox="0 0 80 80" fill="none" xmlns="http://www.w3.org/2000/svg">
<g id="fluent:design-ideas-48-regular">
<path id="Vector" d="M20.135 8.5217C20.8617 8.85337 21.335 9.5717 21.3534 10.37C21.42 13.34 22.47 15.015 23.6784 16.6884L24.015 17.1517C25.1817 18.7367 26.6667 20.755 26.6667 23.7467C26.6668 25.1773 26.3321 26.588 25.6893 27.866C25.0465 29.144 24.1136 30.2538 22.965 31.1067C24.0267 32.045 24.7684 33.2234 25.29 34.4484C26.4567 37.1967 26.6667 40.5567 26.6667 43.245C26.6667 47.645 25.9867 54.3784 24.74 60.045C24.1184 62.8667 23.3317 65.545 22.3567 67.5667C21.8734 68.5717 21.2884 69.5284 20.5684 70.26C19.8434 70.9967 18.815 71.6667 17.5067 71.6667C16.1984 71.6667 15.17 70.9984 14.445 70.2617C13.725 69.5284 13.14 68.5734 12.655 67.5684C11.6784 65.5467 10.8884 62.8684 10.2667 60.0467C9.01671 54.38 8.33337 47.6467 8.33337 43.2467C8.33337 40.555 8.54671 37.195 9.71837 34.4467C10.24 33.2217 10.9817 32.0467 12.0417 31.1117C10.8911 30.2589 9.95626 29.1483 9.31227 27.869C8.66828 26.5897 8.33302 25.1773 8.33337 23.745C8.33337 21.5517 8.61337 19.4467 10.0984 16.995C11.5084 14.665 13.9434 12.13 17.94 8.81337C18.2415 8.56334 18.6073 8.40336 18.9956 8.35177C19.3838 8.30018 19.7787 8.35908 20.135 8.5217ZM13.6617 19.155C12.695 20.7484 12.5 22.03 12.5 23.7467C12.5 25.0728 13.0268 26.3446 13.9645 27.2822C14.9022 28.2199 16.174 28.7467 17.5 28.7467C18.8261 28.7467 20.0979 28.2199 21.0356 27.2822C21.9733 26.3446 22.5 25.0728 22.5 23.7467C22.5 22.1684 21.815 21.2217 20.5567 19.4834L20.2984 19.125C19.4034 17.8834 18.43 16.4217 17.815 14.445C15.6784 16.4134 14.4184 17.905 13.6617 19.1534M13.5517 36.0784C12.73 38.0034 12.5 40.6417 12.5 43.245C12.5 47.33 13.1484 53.765 14.335 59.145C14.9317 61.8484 15.6384 64.1617 16.4067 65.7534C16.7934 66.5534 17.1434 67.06 17.4167 67.3367C17.45 67.3712 17.48 67.4 17.5067 67.4234C17.5334 67.4011 17.5634 67.3728 17.5967 67.3384C17.8684 67.06 18.2184 66.555 18.6034 65.755C19.37 64.1634 20.0767 61.85 20.67 59.1467C21.855 53.765 22.5 47.33 22.5 43.2434C22.5 40.6384 22.2734 38.0017 21.455 36.0767C21.0584 35.1434 20.565 34.4817 19.985 34.0484C19.4284 33.6334 18.6584 33.3317 17.5067 33.3317C16.355 33.3317 15.5834 33.6334 15.0234 34.0484C14.4434 34.4817 13.9484 35.1484 13.5517 36.0784ZM35 15.8334C32.6448 15.8317 30.3189 16.3556 28.1917 17.3667C27.7361 16.6061 27.2375 15.8722 26.6984 15.1684L26.3817 14.74C26.1812 14.466 25.9884 14.1864 25.8034 13.9017C28.6448 12.4286 31.7994 11.6619 35 11.6667C45.4834 11.6667 54.0834 19.7334 54.9317 30H61.25C64.0127 30 66.6622 31.0975 68.6157 33.051C70.5692 35.0045 71.6667 37.654 71.6667 40.4167V57.9167C71.6667 60.6794 70.5692 63.3289 68.6157 65.2824C66.6622 67.2359 64.0127 68.3334 61.25 68.3334H43.75C40.9874 68.3334 38.3378 67.2359 36.3843 65.2824C34.4308 63.3289 33.3334 60.6794 33.3334 57.9167V51.5984C32.0532 51.4926 30.7863 51.2638 29.55 50.915C29.6992 49.4996 29.8148 48.0809 29.8967 46.66C31.0103 47.0394 32.1632 47.2921 33.3334 47.4134V40.4167C33.3334 37.654 34.4308 35.0045 36.3843 33.051C38.3378 31.0975 40.9874 30 43.75 30H50.7467C49.9134 22.0384 43.1817 15.8334 35 15.8334ZM61.25 34.1667H54.845C54.2886 38.5727 52.2822 42.6684 49.142 45.8086C46.0017 48.9489 41.906 50.9552 37.5 51.5117V57.9167C37.5 59.5743 38.1585 61.164 39.3306 62.3361C40.5027 63.5082 42.0924 64.1667 43.75 64.1667H61.25C62.9076 64.1667 64.4974 63.5082 65.6695 62.3361C66.8416 61.164 67.5 59.5743 67.5 57.9167V40.4167C67.5 38.7591 66.8416 37.1694 65.6695 35.9973C64.4974 34.8252 62.9076 34.1667 61.25 34.1667ZM37.5 47.3034C40.7935 46.7745 43.8362 45.2201 46.1948 42.8615C48.5535 40.5028 50.1079 37.4602 50.6367 34.1667H43.75C42.0924 34.1667 40.5027 34.8252 39.3306 35.9973C38.1585 37.1694 37.5 38.7591 37.5 40.4167V47.3034Z" fill="black"/>
</g>
</svg>
