<svg width="60" height="61" viewBox="0 0 60 61" fill="none" xmlns="http://www.w3.org/2000/svg">
<g id="ic:outline-gpp-bad">
<path id="Vector" d="M30 5.5L10 13V28.225C10 40.85 18.525 52.625 30 55.5C41.475 52.625 50 40.85 50 28.225V13L30 5.5ZM45 28.225C45 38.225 38.625 47.475 30 50.3C21.375 47.475 15 38.25 15 28.225V16.475L30 10.85L45 16.475V28.225ZM24.775 21.75L21.25 25.275L26.475 30.5L21.25 35.725L24.775 39.25L30 34.05L35.225 39.25L38.75 35.725L33.55 30.5L38.75 25.275L35.225 21.75L30 26.975L24.775 21.75Z" fill="black"/>
</g>
</svg>
