<svg width="60" height="61" viewBox="0 0 60 61" fill="none" xmlns="http://www.w3.org/2000/svg">
<g id="mi:mobile">
<g id="Group">
<path id="Vector" d="M15 13C15 11.6739 15.5268 10.4021 16.4645 9.46447C17.4021 8.52678 18.6739 8 20 8H40C41.3261 8 42.5979 8.52678 43.5355 9.46447C44.4732 10.4021 45 11.6739 45 13V48C45 49.3261 44.4732 50.5979 43.5355 51.5355C42.5979 52.4732 41.3261 53 40 53H20C18.6739 53 17.4021 52.4732 16.4645 51.5355C15.5268 50.5979 15 49.3261 15 48V13ZM40 13H20V48H40V13Z" fill="black"/>
<path id="Vector_2" d="M32.5 43C32.5 43.663 32.2366 44.2989 31.7678 44.7678C31.2989 45.2366 30.663 45.5 30 45.5C29.337 45.5 28.7011 45.2366 28.2322 44.7678C27.7634 44.2989 27.5 43.663 27.5 43C27.5 42.337 27.7634 41.7011 28.2322 41.2322C28.7011 40.7634 29.337 40.5 30 40.5C30.663 40.5 31.2989 40.7634 31.7678 41.2322C32.2366 41.7011 32.5 42.337 32.5 43Z" fill="black"/>
</g>
</g>
</svg>
