<svg width="60" height="60" viewBox="0 0 60 60" fill="none" xmlns="http://www.w3.org/2000/svg">
<g id="hugeicons:web-design-01">
<path id="Vector" d="M6.25 22.5H53.75M32.5 32.5H42.5M32.5 42.5H37.5M17.5 15H17.5225M27.5 15H27.5225M22.5 22.5V53.75M6.25 30C6.25 18.805 6.25 13.205 9.7275 9.7275C13.205 6.25 18.8025 6.25 30 6.25C41.195 6.25 46.795 6.25 50.2725 9.7275C53.75 13.205 53.75 18.8025 53.75 30C53.75 41.195 53.75 46.795 50.2725 50.2725C46.795 53.75 41.1975 53.75 30 53.75C18.805 53.75 13.205 53.75 9.7275 50.2725C6.25 46.795 6.25 41.1975 6.25 30Z" stroke="black" stroke-width="4" stroke-linecap="round" stroke-linejoin="round"/>
</g>
</svg>
