<svg width="80" height="80" viewBox="0 0 80 80" fill="none" xmlns="http://www.w3.org/2000/svg">
<g id="ri:seo-line">
<path id="Vector" d="M26.6666 10C20.4782 10 14.5433 12.4583 10.1674 16.8342C5.79158 21.21 3.33325 27.1449 3.33325 33.3333C3.33325 39.5217 5.79158 45.4566 10.1674 49.8325C14.5433 54.2083 20.4782 56.6667 26.6666 56.6667H30.2332C29.9142 54.4559 29.9142 52.2108 30.2332 50H26.6666C22.2463 50 18.0071 48.2441 14.8815 45.1184C11.7559 41.9928 9.99992 37.7536 9.99992 33.3333C9.99992 28.9131 11.7559 24.6738 14.8815 21.5482C18.0071 18.4226 22.2463 16.6667 26.6666 16.6667H53.3333C55.805 16.6662 58.2459 17.2154 60.4791 18.2747C62.7124 19.3339 64.6821 20.8767 66.2455 22.7911C67.809 24.7055 68.927 26.9437 69.5187 29.3436C70.1104 31.7435 70.1609 34.2449 69.6666 36.6667C71.6316 38.5914 73.2408 40.8483 74.4199 43.3333C76.1071 39.7764 76.8669 35.8505 76.6286 31.921C76.3903 27.9914 75.1617 24.1861 73.057 20.8591C70.9524 17.5322 68.0402 14.7918 64.5916 12.8931C61.143 10.9944 57.27 9.99919 53.3333 10H26.6666ZM53.3333 43.3333C50.6811 43.3333 48.1375 44.3869 46.2622 46.2623C44.3868 48.1376 43.3333 50.6812 43.3333 53.3333C43.3333 55.9855 44.3868 58.529 46.2622 60.4044C48.1375 62.2798 50.6811 63.3333 53.3333 63.3333C55.9854 63.3333 58.529 62.2798 60.4043 60.4044C62.2797 58.529 63.3333 55.9855 63.3333 53.3333C63.3333 50.6812 62.2797 48.1376 60.4043 46.2623C58.529 44.3869 55.9854 43.3333 53.3333 43.3333ZM36.6666 53.3333C36.6672 50.7347 37.2755 48.1722 38.4428 45.8505C39.6101 43.5289 41.3042 41.5123 43.3896 39.9619C45.4751 38.4115 47.8942 37.3703 50.4538 36.9213C53.0133 36.4723 55.6424 36.6281 58.131 37.3762C60.6196 38.1242 62.8989 39.4438 64.7867 41.2296C66.6745 43.0154 68.1186 45.2179 69.0036 47.6612C69.8886 50.1045 70.19 52.7208 69.8838 55.3014C69.5776 57.8819 68.6722 60.355 67.2399 62.5233L75.6899 70.9767L70.9766 75.69L62.5233 67.24C60.0111 68.9004 57.0961 69.8492 54.0879 69.9856C51.0797 70.1219 48.0907 69.4407 45.4387 68.0143C42.7867 66.588 40.5706 64.4697 39.026 61.8848C37.4815 59.2998 36.6661 56.3446 36.6666 53.3333Z" fill="black"/>
</g>
</svg>
