<svg width="80" height="80" viewBox="0 0 80 80" fill="none" xmlns="http://www.w3.org/2000/svg">
<g id="uiw:loading">
<path id="Vector" fill-rule="evenodd" clip-rule="evenodd" d="M43.2 59.2C44.8974 59.2 46.5252 59.8743 47.7255 61.0745C48.9257 62.2747 49.6 63.9026 49.6 65.6C49.6 67.2974 48.9257 68.9253 47.7255 70.1255C46.5252 71.3257 44.8974 72 43.2 72C41.5026 72 39.8748 71.3257 38.6745 70.1255C37.4743 68.9253 36.8 67.2974 36.8 65.6C36.8 63.9026 37.4743 62.2747 38.6745 61.0745C39.8748 59.8743 41.5026 59.2 43.2 59.2ZM23.1712 49.6C25.2929 49.6 27.3278 50.4429 28.8281 51.9431C30.3283 53.4434 31.1712 55.4783 31.1712 57.6C31.1712 59.7217 30.3283 61.7566 28.8281 63.2569C27.3278 64.7571 25.2929 65.6 23.1712 65.6C21.0495 65.6 19.0146 64.7571 17.5143 63.2569C16.0141 61.7566 15.1712 59.7217 15.1712 57.6C15.1712 55.4783 16.0141 53.4434 17.5143 51.9431C19.0146 50.4429 21.0495 49.6 23.1712 49.6ZM60.2208 51.2C61.9182 51.2 63.5461 51.8743 64.7463 53.0745C65.9465 54.2747 66.6208 55.9026 66.6208 57.6C66.6208 59.2974 65.9465 60.9253 64.7463 62.1255C63.5461 63.3257 61.9182 64 60.2208 64C58.5234 64 56.8955 63.3257 55.6953 62.1255C54.4951 60.9253 53.8208 59.2974 53.8208 57.6C53.8208 55.9026 54.4951 54.2747 55.6953 53.0745C56.8955 51.8743 58.5234 51.2 60.2208 51.2ZM67.2 37.8208C68.473 37.8208 69.6939 38.3265 70.5941 39.2267C71.4943 40.1269 72 41.3478 72 42.6208C72 43.8938 71.4943 45.1147 70.5941 46.0149C69.6939 46.9151 68.473 47.4208 67.2 47.4208C65.927 47.4208 64.7061 46.9151 63.8059 46.0149C62.9057 45.1147 62.4 43.8938 62.4 42.6208C62.4 41.3478 62.9057 40.1269 63.8059 39.2267C64.7061 38.3265 65.927 37.8208 67.2 37.8208ZM16 27.2C18.1217 27.2 20.1566 28.0429 21.6569 29.5431C23.1571 31.0434 24 33.0783 24 35.2C24 37.3217 23.1571 39.3566 21.6569 40.8569C20.1566 42.3571 18.1217 43.2 16 43.2C13.8783 43.2 11.8434 42.3571 10.3431 40.8569C8.84285 39.3566 8 37.3217 8 35.2C8 33.0783 8.84285 31.0434 10.3431 29.5431C11.8434 28.0429 13.8783 27.2 16 27.2ZM64.9152 24.6624C65.7639 24.6624 66.5778 24.9995 67.1779 25.5997C67.7781 26.1998 68.1152 27.0137 68.1152 27.8624C68.1152 28.7111 67.7781 29.525 67.1779 30.1251C66.5778 30.7253 65.7639 31.0624 64.9152 31.0624C64.0665 31.0624 63.2526 30.7253 62.6525 30.1251C62.0523 29.525 61.7152 28.7111 61.7152 27.8624C61.7152 27.0137 62.0523 26.1998 62.6525 25.5997C63.2526 24.9995 64.0665 24.6624 64.9152 24.6624ZM33.6 8C36.1461 8 38.5879 9.01143 40.3882 10.8118C42.1886 12.6121 43.2 15.0539 43.2 17.6C43.2 20.1461 42.1886 22.5879 40.3882 24.3882C38.5879 26.1886 36.1461 27.2 33.6 27.2C31.0539 27.2 28.6121 26.1886 26.8118 24.3882C25.0114 22.5879 24 20.1461 24 17.6C24 15.0539 25.0114 12.6121 26.8118 10.8118C28.6121 9.01143 31.0539 8 33.6 8ZM57.6 17.6C58.0243 17.6 58.4313 17.7686 58.7314 18.0686C59.0314 18.3687 59.2 18.7757 59.2 19.2C59.2 19.6243 59.0314 20.0313 58.7314 20.3314C58.4313 20.6314 58.0243 20.8 57.6 20.8C57.1757 20.8 56.7687 20.6314 56.4686 20.3314C56.1686 20.0313 56 19.6243 56 19.2C56 18.7757 56.1686 18.3687 56.4686 18.0686C56.7687 17.7686 57.1757 17.6 57.6 17.6Z" fill="black"/>
</g>
</svg>
