<svg width="60" height="61" viewBox="0 0 60 61" fill="none" xmlns="http://www.w3.org/2000/svg">
<g id="carbon:power-virtual-server-disaster-recovery-automation">
<path id="Vector" d="M16.8751 30.5C16.8751 31.1319 16.9201 31.7656 17.0082 32.3863L13.2957 32.9169C13.181 32.1164 13.124 31.3087 13.1251 30.5C13.1251 21.1944 20.6964 13.625 30.0001 13.625C33.8307 13.625 37.5826 14.945 40.5657 17.3394L38.2164 20.2644C35.8923 18.3834 32.99 17.3627 30.0001 17.375C22.7626 17.375 16.8751 23.2625 16.8751 30.5ZM15.0001 38C15.0001 38.4973 15.1977 38.9742 15.5493 39.3258C15.9009 39.6775 16.3778 39.875 16.8751 39.875C17.3724 39.875 17.8493 39.6775 18.2009 39.3258C18.5526 38.9742 18.7501 38.4973 18.7501 38C18.7501 37.5027 18.5526 37.0258 18.2009 36.6742C17.8493 36.3225 17.3724 36.125 16.8751 36.125C16.3778 36.125 15.9009 36.3225 15.5493 36.6742C15.1977 37.0258 15.0001 37.5027 15.0001 38ZM30.0001 8C42.407 8 52.5001 18.0931 52.5001 30.5H56.2501C56.2501 16.025 44.4751 4.25 30.0001 4.25C26.9195 4.25 23.9007 4.77875 21.0282 5.82313L22.3107 9.34812C24.7757 8.45413 27.378 7.99789 30.0001 8ZM41.2501 23C41.2501 23.4973 41.4477 23.9742 41.7993 24.3258C42.1509 24.6775 42.6278 24.875 43.1251 24.875C43.6224 24.875 44.0993 24.6775 44.4509 24.3258C44.8026 23.9742 45.0001 23.4973 45.0001 23C45.0001 22.5027 44.8026 22.0258 44.4509 21.6742C44.0993 21.3225 43.6224 21.125 43.1251 21.125C42.6278 21.125 42.1509 21.3225 41.7993 21.6742C41.4477 22.0258 41.2501 22.5027 41.2501 23ZM16.8751 11.75C17.3724 11.75 17.8493 11.5525 18.2009 11.2008C18.5526 10.8492 18.7501 10.3723 18.7501 9.875C18.7501 9.37772 18.5526 8.90081 18.2009 8.54918C17.8493 8.19754 17.3724 8 16.8751 8C16.3778 8 15.9009 8.19754 15.5493 8.54918C15.1977 8.90081 15.0001 9.37772 15.0001 9.875C15.0001 10.3723 15.1977 10.8492 15.5493 11.2008C15.9009 11.5525 16.3778 11.75 16.8751 11.75ZM7.50012 30.5C7.50012 24.4906 9.84012 18.8394 14.0907 14.5906L11.4376 11.9375C8.9918 14.369 7.05289 17.2618 5.73328 20.4482C4.41366 23.6346 3.73959 27.0512 3.75012 30.5C3.75012 44.975 15.5251 56.75 30.0001 56.75V53C17.5932 53 7.50012 42.9069 7.50012 30.5ZM53.4376 48.3125C53.4376 51.4137 50.9139 53.9375 47.8126 53.9375C44.7114 53.9375 42.1876 51.4137 42.1876 48.3125C42.1876 47.4463 42.4014 46.6362 42.7501 45.9031L32.4095 35.5606C31.6782 35.9112 30.8664 36.125 30.0001 36.125C26.8989 36.125 24.3751 33.6012 24.3751 30.5C24.3751 27.3988 26.8989 24.875 30.0001 24.875C33.1014 24.875 35.6251 27.3988 35.6251 30.5C35.6251 31.3662 35.4132 32.1763 35.0626 32.9094L45.4032 43.2519C46.1345 42.9013 46.9464 42.6875 47.8126 42.6875C50.9139 42.6875 53.4376 45.2113 53.4376 48.3125ZM30.0001 32.375C31.0332 32.375 31.8751 31.5331 31.8751 30.5C31.8751 29.4669 31.0332 28.625 30.0001 28.625C28.967 28.625 28.1251 29.4669 28.1251 30.5C28.1251 31.5331 28.967 32.375 30.0001 32.375ZM49.6876 48.3125C49.6874 47.815 49.4895 47.3379 49.1375 46.9863C48.7855 46.6347 48.3083 46.4373 47.8107 46.4375C47.3132 46.4377 46.8362 46.6356 46.4845 46.9876C46.1329 47.3396 45.9355 47.8168 45.9357 48.3144C45.936 48.8119 46.1339 49.289 46.4859 49.6406C46.8378 49.9922 47.3151 50.1896 47.8126 50.1894C48.3102 50.1891 48.7872 49.9912 49.1388 49.6393C49.4905 49.2873 49.6879 48.81 49.6876 48.3125Z" fill="black"/>
</g>
</svg>
