<svg width="60" height="61" viewBox="0 0 60 61" fill="none" xmlns="http://www.w3.org/2000/svg">
<g id="mingcute:scale-line">
<g id="Group">
<path id="Vector" d="M27.5 8C28.1372 8.00071 28.7501 8.2447 29.2134 8.68212C29.6768 9.11954 29.9556 9.71738 29.9929 10.3535C30.0303 10.9896 29.8233 11.6159 29.4143 12.1046C29.0054 12.5932 28.4252 12.9072 27.7925 12.9825L27.5 13H12.5V48H47.5V33C47.5007 32.3628 47.7447 31.7499 48.1821 31.2866C48.6195 30.8232 49.2174 30.5444 49.8535 30.5071C50.4896 30.4697 51.1159 30.6767 51.6046 31.0857C52.0932 31.4946 52.4072 32.0748 52.4825 32.7075L52.5 33V48C52.5004 49.2614 52.024 50.4764 51.1663 51.4014C50.3085 52.3263 49.1329 52.8929 47.875 52.9875L47.5 53H12.5C11.2386 53.0004 10.0236 52.524 9.09863 51.6663C8.17368 50.8085 7.60711 49.6329 7.5125 48.375L7.5 48V13C7.4996 11.7386 7.97602 10.5236 8.83374 9.59863C9.69147 8.67368 10.8671 8.10711 12.125 8.0125L12.5 8H27.5ZM49.375 8C51.1 8 52.5 9.4 52.5 11.125V20.5C52.5 21.163 52.2366 21.7989 51.7678 22.2678C51.2989 22.7366 50.663 23 50 23C49.337 23 48.7011 22.7366 48.2322 22.2678C47.7634 21.7989 47.5 21.163 47.5 20.5V16.535L31.035 33H35C35.663 33 36.2989 33.2634 36.7678 33.7322C37.2366 34.2011 37.5 34.837 37.5 35.5C37.5 36.163 37.2366 36.7989 36.7678 37.2678C36.2989 37.7366 35.663 38 35 38H25.625C23.9 38 22.5 36.6 22.5 34.875V25.5C22.5 24.837 22.7634 24.2011 23.2322 23.7322C23.7011 23.2634 24.337 23 25 23C25.663 23 26.2989 23.2634 26.7678 23.7322C27.2366 24.2011 27.5 24.837 27.5 25.5V29.465L43.965 13H40C39.337 13 38.7011 12.7366 38.2322 12.2678C37.7634 11.7989 37.5 11.163 37.5 10.5C37.5 9.83696 37.7634 9.20107 38.2322 8.73223C38.7011 8.26339 39.337 8 40 8H49.375Z" fill="black"/>
</g>
</g>
</svg>
