<svg width="60" height="61" viewBox="0 0 60 61" fill="none" xmlns="http://www.w3.org/2000/svg">
<path d="M10 33C10 38.525 12.2375 43.525 15.8575 47.1425L12.325 50.675C10.0001 48.3565 8.15609 45.6016 6.89904 42.5683C5.64199 39.5351 4.99662 36.2834 5.00001 33C5.00001 19.1925 16.1925 8 30 8C43.8075 8 55 19.1925 55 33C55.0041 36.2836 54.3593 39.5357 53.1026 42.5694C51.846 45.6031 50.0023 48.3585 47.6775 50.6775L44.1425 47.1425C46.4681 44.8168 48.1842 41.9534 49.1389 38.8061C50.0936 35.6587 50.2574 32.3245 49.6157 29.0987C48.974 25.873 47.5467 22.8552 45.4602 20.3128C43.3737 17.7704 40.6924 15.7818 37.6538 14.5232C34.6152 13.2645 31.3131 12.7747 28.0399 13.097C24.7668 13.4193 21.6237 14.5439 18.889 16.3711C16.1542 18.1983 13.9123 20.6717 12.3619 23.5723C10.8114 26.4729 10.0001 29.711 10 33ZM21.7675 21.2325L33.75 31.75L28.75 36.75L18.2325 24.7675L21.7675 21.2325Z" fill="black"/>
</svg>
