<svg width="81" height="80" viewBox="0 0 81 80" fill="none" xmlns="http://www.w3.org/2000/svg">
<path d="M75.4999 15.0001C75.4921 12.4069 74.4753 9.91861 72.6648 8.06213C70.8543 6.20565 68.3923 5.12677 65.8001 5.05399C63.208 4.9812 60.6893 5.92021 58.7775 7.67216C56.8656 9.42412 55.7107 11.8514 55.5574 14.4401L24.4649 20.6576C23.738 19.1466 22.6419 17.8433 21.2779 16.8681C19.914 15.8928 18.3262 15.2772 16.6613 15.078C14.9965 14.8788 13.3082 15.1024 11.7527 15.7283C10.1972 16.3542 8.82451 17.3622 7.76159 18.6589C6.69867 19.9557 5.97979 21.4995 5.67139 23.1476C5.363 24.7958 5.47504 26.495 5.99715 28.0884C6.51927 29.6818 7.43462 31.1178 8.6586 32.2638C9.88258 33.4098 11.3757 34.2288 12.9999 34.6451V55.3551C11.2939 55.7922 9.73402 56.673 8.47854 57.9081C7.22307 59.1431 6.31676 60.6884 5.85165 62.387C5.38654 64.0855 5.37919 65.877 5.83034 67.5793C6.2815 69.2817 7.17509 70.8343 8.42039 72.0796C9.66569 73.3249 11.2183 74.2185 12.9207 74.6696C14.623 75.1208 16.4144 75.1134 18.113 74.6483C19.8116 74.1832 21.3569 73.2769 22.5919 72.0214C23.827 70.766 24.7078 69.206 25.1449 67.5H45.8549C46.2705 69.1254 47.0892 70.6197 48.2353 71.8447C49.3814 73.0698 50.8179 73.9861 52.412 74.509C54.0061 75.0318 55.7062 75.1442 57.3552 74.8359C59.0043 74.5275 60.5489 73.8084 61.8464 72.7449C63.1439 71.6814 64.1522 70.308 64.7782 68.7516C65.4043 67.1951 65.6277 65.506 65.428 63.8403C65.2282 62.1746 64.6117 60.5862 63.6354 59.2219C62.6591 57.8577 61.3546 56.7616 59.8424 56.035L66.0599 24.9426C68.605 24.8028 71.0003 23.6953 72.7554 21.8469C74.5104 19.9985 75.4923 17.5489 75.4999 15.0001ZM65.4999 10.0001C66.4888 10.0001 67.4555 10.2933 68.2778 10.8427C69.1 11.3921 69.7409 12.173 70.1193 13.0866C70.4978 14.0003 70.5968 15.0056 70.4039 15.9755C70.2109 16.9454 69.7347 17.8363 69.0355 18.5356C68.3362 19.2349 67.4453 19.7111 66.4754 19.904C65.5055 20.0969 64.5002 19.9979 63.5865 19.6195C62.6729 19.241 61.892 18.6002 61.3426 17.7779C60.7932 16.9557 60.4999 15.989 60.4999 15.0001C60.4999 13.674 61.0267 12.4022 61.9644 11.4645C62.9021 10.5268 64.1739 10.0001 65.4999 10.0001ZM10.4999 25.0001C10.4999 24.0111 10.7932 23.0445 11.3426 22.2222C11.892 21.4 12.6729 20.7591 13.5865 20.3807C14.5002 20.0022 15.5055 19.9032 16.4754 20.0961C17.4453 20.2891 18.3362 20.7653 19.0355 21.4645C19.7347 22.1638 20.2109 23.0547 20.4039 24.0246C20.5968 24.9945 20.4978 25.9998 20.1193 26.9135C19.7409 27.8271 19.1 28.608 18.2778 29.1574C17.4555 29.7068 16.4888 30.0001 15.4999 30.0001C14.1739 30.0001 12.9021 29.4733 11.9644 28.5356C11.0267 27.5979 10.4999 26.3261 10.4999 25.0001ZM15.4999 70.0001C14.511 70.0001 13.5443 69.7068 12.7221 69.1574C11.8998 68.608 11.259 67.8271 10.8805 66.9135C10.5021 65.9998 10.4031 64.9945 10.596 64.0246C10.7889 63.0547 11.2651 62.1638 11.9644 61.4645C12.6637 60.7653 13.5546 60.2891 14.5245 60.0961C15.4944 59.9032 16.4997 60.0022 17.4134 60.3807C18.327 60.7591 19.1079 61.4 19.6573 62.2222C20.2067 63.0444 20.4999 64.0111 20.4999 65.0001C20.4999 66.3261 19.9732 67.5979 19.0355 68.5356C18.0978 69.4733 16.826 70.0001 15.4999 70.0001ZM45.8549 62.5001H25.1449C24.6957 60.7819 23.797 59.2145 22.5413 57.9587C21.2855 56.703 19.7181 55.8043 17.9999 55.3551V34.6451C20.042 34.1127 21.8626 32.9464 23.1999 31.314C24.5373 29.6815 25.3224 27.6669 25.4424 25.5601L56.5349 19.3426C57.514 21.3587 59.1419 22.9875 61.1574 23.9676L54.9399 55.0576C52.833 55.1776 50.8185 55.9627 49.186 57.3001C47.5536 58.6374 46.3873 60.458 45.8549 62.5001ZM55.4999 70.0001C54.511 70.0001 53.5443 69.7068 52.7221 69.1574C51.8998 68.608 51.259 67.8271 50.8805 66.9135C50.5021 65.9998 50.4031 64.9945 50.596 64.0246C50.7889 63.0547 51.2651 62.1638 51.9644 61.4645C52.6637 60.7653 53.5546 60.2891 54.5245 60.0961C55.4944 59.9032 56.4997 60.0022 57.4134 60.3807C58.327 60.7591 59.1079 61.4 59.6573 62.2222C60.2067 63.0444 60.4999 64.0111 60.4999 65.0001C60.4999 66.3261 59.9732 67.5979 59.0355 68.5356C58.0978 69.4733 56.826 70.0001 55.4999 70.0001Z" fill="black"/>
</svg>
