<svg width="81" height="80" viewBox="0 0 81 80" fill="none" xmlns="http://www.w3.org/2000/svg">
<path d="M65.5 55C60.855 55 56.975 58.2 55.855 62.5H25.145C24.6957 60.7819 23.7971 59.2144 22.5413 57.9587C21.2856 56.7029 19.7181 55.8042 18 55.355V47.5C18 44.745 20.2425 42.5 23 42.5H58C63.515 42.5 68 38.015 68 32.5V24.645C72.3 23.5275 75.5 19.645 75.5 15C75.5 9.485 71.015 5 65.5 5C59.985 5 55.5 9.485 55.5 15C55.5 19.645 58.7 23.525 63 24.645V32.5C63 35.2575 60.7575 37.5 58 37.5H23C17.485 37.5 13 41.985 13 47.5V55.355C8.7 56.4725 5.5 60.355 5.5 65C5.5 70.515 9.985 75 15.5 75C20.145 75 24.025 71.8 25.145 67.5H55.855C56.9725 71.8 60.855 75 65.5 75C71.015 75 75.5 70.515 75.5 65C75.5 59.485 71.015 55 65.5 55ZM60.5 15C60.5 12.245 62.7425 10 65.5 10C68.2575 10 70.5 12.245 70.5 15C70.5 17.755 68.2575 20 65.5 20C62.7425 20 60.5 17.7575 60.5 15ZM15.5 70C12.7425 70 10.5 67.7575 10.5 65C10.5 62.2425 12.7425 60 15.5 60C18.2575 60 20.5 62.245 20.5 65C20.5 67.755 18.2575 70 15.5 70ZM65.5 70C62.7425 70 60.5 67.7575 60.5 65C60.5 62.2425 62.7425 60 65.5 60C68.2575 60 70.5 62.245 70.5 65C70.5 67.755 68.2575 70 65.5 70Z" fill="black"/>
<path d="M15.5 25C17.35 25 19.06 24.4625 20.5475 23.5825L29.465 32.5L33 28.965L24.0825 20.0475C25.0012 18.5235 25.4909 16.7795 25.5 15C25.5 9.485 21.015 5 15.5 5C9.985 5 5.5 9.485 5.5 15C5.5 20.515 9.985 25 15.5 25ZM15.5 10C18.2575 10 20.5 12.245 20.5 15C20.5 17.755 18.2575 20 15.5 20C12.7425 20 10.5 17.7575 10.5 15C10.5 12.2425 12.7425 10 15.5 10Z" fill="black"/>
</svg>
