<svg width="81" height="80" viewBox="0 0 81 80" fill="none" xmlns="http://www.w3.org/2000/svg">
<path d="M68.2266 13.2734L41.6797 4.22656C41.3594 4.11719 40.9297 4.0625 40.5 4.0625C40.0703 4.0625 39.6406 4.11719 39.3203 4.22656L12.7734 13.2734C12.125 13.4922 11.5938 14.2422 11.5938 14.9297V52.6172C11.5938 53.3047 12.0391 54.2109 12.5781 54.6406L39.5078 75.625C39.7812 75.8359 40.1328 75.9453 40.4922 75.9453C40.8516 75.9453 41.2109 75.8359 41.4766 75.625L68.4062 54.6406C68.9453 54.2188 69.3906 53.3125 69.3906 52.6172V14.9297C69.4062 14.2422 68.875 13.5 68.2266 13.2734ZM63.7812 51.1172L40.5 69.2578L17.2188 51.1172V17.7109L40.5 9.77344L63.7812 17.7109V51.1172ZM31.9766 41.3125L25.9219 47.3672C25.8056 47.4847 25.7403 47.6433 25.7403 47.8086C25.7403 47.9739 25.8056 48.1325 25.9219 48.25L28.5781 50.9062C28.8203 51.1484 29.2188 51.1484 29.4609 50.9062L35.5156 44.8516C39.8672 47.5937 45.6797 47.0703 49.4688 43.2812C53.8672 38.8828 53.8672 31.7578 49.4688 27.3594C45.0703 22.9609 37.9453 22.9609 33.5469 27.3594C29.7578 31.1484 29.2344 36.9688 31.9766 41.3125ZM37.0859 30.8984C39.5312 28.4531 43.4922 28.4531 45.9297 30.8984C48.375 33.3438 48.375 37.3047 45.9297 39.7422C43.4844 42.1875 39.5234 42.1875 37.0859 39.7422C34.6484 37.2969 34.6406 33.3438 37.0859 30.8984Z" fill="black"/>
</svg>
