<svg width="926" height="219" viewBox="0 0 926 219" fill="none" xmlns="http://www.w3.org/2000/svg">
<path d="M2.38 48V28.372H4.76L12.656 38.452L20.468 28.372H22.876V48H20.216V32.488L12.656 42.176L5.04 32.516V48H2.38ZM27.6456 48V28.4H30.3056V48H27.6456ZM39.7871 48V30.78H33.2631V28.4H49.0271V30.78H42.4751V48H39.7871ZM9.996 85.28C8.428 85.28 7.056 84.9627 5.88 84.328C4.704 83.6747 3.78933 82.76 3.136 81.584C2.50133 80.408 2.184 79.036 2.184 77.468V65.4H4.844V77.524C4.844 79.1853 5.292 80.4827 6.188 81.416C7.084 82.3493 8.35333 82.816 9.996 82.816C11.6573 82.816 12.9453 82.3493 13.86 81.416C14.7747 80.4827 15.232 79.1853 15.232 77.524V65.4H17.892V77.468C17.892 79.036 17.5653 80.408 16.912 81.584C16.2773 82.76 15.3627 83.6747 14.168 84.328C12.9733 84.9627 11.5827 85.28 9.996 85.28ZM13.552 62.992C13.0107 62.992 12.572 62.8427 12.236 62.544C11.9187 62.2267 11.76 61.816 11.76 61.312C11.76 60.8267 11.928 60.4347 12.264 60.136C12.6 59.8187 13.0293 59.66 13.552 59.66C14.0933 59.66 14.5227 59.8187 14.84 60.136C15.176 60.4347 15.344 60.8267 15.344 61.312C15.344 61.816 15.176 62.2267 14.84 62.544C14.5227 62.8427 14.0933 62.992 13.552 62.992ZM6.524 62.992C5.98267 62.992 5.544 62.8427 5.208 62.544C4.89067 62.2267 4.732 61.816 4.732 61.312C4.732 60.8267 4.89067 60.4347 5.208 60.136C5.544 59.8187 5.98267 59.66 6.524 59.66C7.04667 59.66 7.476 59.8187 7.812 60.136C8.148 60.4347 8.316 60.8267 8.316 61.312C8.316 61.816 8.148 62.2267 7.812 62.544C7.49467 62.8427 7.06533 62.992 6.524 62.992ZM22.4503 85V65.4H30.4303C32.4463 65.4 34.0423 65.848 35.2183 66.744C36.413 67.6213 37.0103 68.8253 37.0103 70.356C37.0103 72.1107 36.0583 73.604 34.1543 74.836C35.3676 75.2653 36.301 75.9093 36.9543 76.768C37.6076 77.608 37.9343 78.5413 37.9343 79.568C37.9343 80.6693 37.6356 81.6307 37.0383 82.452C36.4596 83.2547 35.629 83.88 34.5463 84.328C33.4636 84.776 32.1943 85 30.7383 85H22.4503ZM30.9343 82.62C32.2783 82.62 33.333 82.34 34.0983 81.78C34.8636 81.22 35.2463 80.4547 35.2463 79.484C35.2463 78.4947 34.8636 77.72 34.0983 77.16C33.333 76.6 32.2783 76.32 30.9343 76.32H25.1103V82.62H30.9343ZM31.8303 74.024C32.6516 73.6133 33.2863 73.1093 33.7343 72.512C34.201 71.9147 34.4343 71.2707 34.4343 70.58C34.4343 69.6653 34.0983 68.9653 33.4263 68.48C32.773 67.9947 31.821 67.752 30.5703 67.752H25.1103V74.024H31.8303ZM41.5363 85V65.4H54.4443V67.78H44.1963V73.744H53.6603V76.124H44.1963V82.592H54.8643V85H41.5363ZM58.4894 85V65.4H66.1894C67.5894 65.4 68.8214 65.6613 69.8854 66.184C70.968 66.688 71.7987 67.416 72.3774 68.368C72.9747 69.32 73.2734 70.4213 73.2734 71.672C73.2734 73.128 72.8814 74.3693 72.0974 75.396C71.3134 76.4227 70.2307 77.1413 68.8494 77.552L74.2254 85H71.0894L66.0774 77.916H61.1494V85H58.4894ZM66.2174 75.592C67.58 75.592 68.644 75.2467 69.4094 74.556C70.1747 73.8467 70.5574 72.8853 70.5574 71.672C70.5574 70.4773 70.1654 69.5347 69.3814 68.844C68.616 68.1347 67.5614 67.78 66.2174 67.78H61.1494V75.592H66.2174Z" fill="black"/>
<rect width="202" height="113" transform="translate(110)" fill="#0009FF"/>
<path d="M125.833 40.6665H137.899C141.424 29.5412 151.75 21.9816 163.42 21.9816L167.534 9H135.868L125.833 40.6665Z" fill="white"/>
<path d="M173.333 104H205L209.083 91.113C199.329 91.113 192.388 81.6322 195.335 72.334H183.367L173.333 104Z" fill="white"/>
<path d="M169.884 104H138.218L171.492 9C186.967 9 197.806 24.2818 192.691 38.8864L169.884 104Z" fill="white"/>
<path d="M276.463 9H228.788C228.788 19.8811 219.965 28.7036 209.084 28.7036V84.2962C219.965 84.2962 228.788 93.1187 228.788 104H276.463C276.463 93.1187 285.286 84.2962 296.167 84.2962V28.7036C285.286 28.7036 276.463 19.8811 276.463 9ZM276.376 68.5022C274.942 69.9316 273.71 71.1675 272.545 72.333C269.985 74.8926 267.782 77.0962 264.628 80.2497H240.623L228.876 68.5022V44.4972C230.309 43.0679 231.541 41.8319 232.706 40.6665C235.266 38.1068 237.47 35.9033 240.623 32.7497H264.628L276.376 44.4972V68.5022Z" fill="white"/>
<path d="M346.38 48V28.4H359.288V30.78H349.04V37.444H358.476V39.824H349.04V48H346.38ZM358.796 48L367.476 28.4H370.164L378.788 48H375.876L373.944 43.492H363.612L361.68 48H358.796ZM372.936 41.196L372.628 40.468L368.82 31.088L364.9 40.44L364.592 41.196H372.936ZM389.8 48.308C387.765 48.308 385.964 47.888 384.396 47.048C382.846 46.1893 381.642 44.9853 380.784 43.436C379.925 41.8867 379.496 40.104 379.496 38.088C379.496 36.1093 379.925 34.364 380.784 32.852C381.642 31.34 382.856 30.1733 384.424 29.352C385.992 28.512 387.793 28.092 389.828 28.092C392.086 28.092 394.252 28.5213 396.324 29.38L395.4 31.844C394.317 31.3773 393.356 31.0507 392.516 30.864C391.676 30.6587 390.798 30.556 389.884 30.556C388.316 30.556 386.953 30.864 385.796 31.48C384.638 32.0773 383.752 32.9453 383.136 34.084C382.52 35.2227 382.212 36.5573 382.212 38.088C382.212 39.712 382.529 41.112 383.164 42.288C383.817 43.4453 384.713 44.332 385.852 44.948C386.99 45.5453 388.297 45.844 389.772 45.844C390.854 45.844 391.834 45.732 392.712 45.508C393.608 45.2653 394.578 44.8547 395.624 44.276L396.688 46.684C395.4 47.3 394.242 47.7293 393.216 47.972C392.189 48.196 391.05 48.308 389.8 48.308ZM413.255 48V38.956H402.251V48H399.591V28.4H402.251V36.548H413.255V28.4H415.915V48H413.255ZM419.161 48V46.152L430.529 30.752H419.581V28.4H434.057V30.192L422.661 45.62H434.337V48H419.161ZM437.653 48V28.4H450.561V30.78H440.313V36.744H449.777V39.124H440.313V45.592H450.981V48H437.653ZM454.607 48V28.4H462.307C463.707 28.4 464.939 28.6613 466.003 29.184C467.085 29.688 467.916 30.416 468.495 31.368C469.092 32.32 469.391 33.4213 469.391 34.672C469.391 36.128 468.999 37.3693 468.215 38.396C467.431 39.4227 466.348 40.1413 464.967 40.552L470.343 48H467.207L462.195 40.916H457.267V48H454.607ZM462.335 38.592C463.697 38.592 464.761 38.2467 465.527 37.556C466.292 36.8467 466.675 35.8853 466.675 34.672C466.675 33.4773 466.283 32.5347 465.499 31.844C464.733 31.1347 463.679 30.78 462.335 30.78H457.267V38.592H462.335ZM477.412 48V30.78H470.888V28.4H486.652V30.78H480.1V48H477.412ZM489.552 48V28.4H492.212V48H489.552ZM496.989 48V28.4H509.897V30.78H499.649V37.444H509.085V39.824H499.649V48H496.989ZM513.204 48V28.4H515.864V48H513.204ZM519.13 48V46.152L530.498 30.752H519.55V28.4H534.026V30.192L522.63 45.62H534.306V48H519.13ZM537.622 48V28.4H540.282V48H537.622ZM545.06 48V28.4H557.968V30.78H547.72V36.744H557.184V39.124H547.72V45.592H558.388V48H545.06ZM562.013 48V28.4H569.713C571.113 28.4 572.345 28.6613 573.409 29.184C574.491 29.688 575.322 30.416 575.901 31.368C576.498 32.32 576.797 33.4213 576.797 34.672C576.797 36.128 576.405 37.3693 575.621 38.396C574.837 39.4227 573.754 40.1413 572.373 40.552L577.749 48H574.613L569.601 40.916H564.673V48H562.013ZM569.741 38.592C571.103 38.592 572.167 38.2467 572.933 37.556C573.698 36.8467 574.081 35.8853 574.081 34.672C574.081 33.4773 573.689 32.5347 572.905 31.844C572.139 31.1347 571.085 30.78 569.741 30.78H564.673V38.592H569.741ZM588.551 48.28C586.983 48.28 585.611 47.9627 584.435 47.328C583.259 46.6747 582.344 45.76 581.691 44.584C581.056 43.408 580.739 42.036 580.739 40.468V28.4H583.399V40.524C583.399 42.1853 583.847 43.4827 584.743 44.416C585.639 45.3493 586.908 45.816 588.551 45.816C590.212 45.816 591.5 45.3493 592.415 44.416C593.329 43.4827 593.787 42.1853 593.787 40.524V28.4H596.447V40.468C596.447 42.036 596.12 43.408 595.467 44.584C594.832 45.76 593.917 46.6747 592.723 47.328C591.528 47.9627 590.137 48.28 588.551 48.28ZM601.005 48V28.372H603.553L615.229 43.968L615.117 37.64V28.4H617.721V48H615.201L603.497 32.46L603.637 38.62V48H601.005ZM631.934 48.308C629.843 48.308 627.995 47.888 626.39 47.048C624.803 46.1893 623.571 44.9947 622.694 43.464C621.835 41.9147 621.406 40.1227 621.406 38.088C621.406 36.0347 621.854 34.2613 622.75 32.768C623.646 31.256 624.897 30.0987 626.502 29.296C628.126 28.4933 629.993 28.092 632.102 28.092C634.435 28.092 636.619 28.5213 638.654 29.38L637.758 31.844C636.713 31.3773 635.761 31.0507 634.902 30.864C634.043 30.6587 633.11 30.556 632.102 30.556C629.601 30.556 627.641 31.228 626.222 32.572C624.822 33.8973 624.122 35.736 624.122 38.088C624.122 40.5147 624.822 42.4187 626.222 43.8C627.622 45.1813 629.545 45.872 631.99 45.872C633.726 45.872 635.266 45.62 636.61 45.116V39.572H631.206V37.192H639.13V46.628C636.965 47.748 634.566 48.308 631.934 48.308ZM643.142 48V28.4H656.05V30.78H645.802V36.744H655.266V39.124H645.802V45.592H656.47V48H643.142ZM660.095 48V28.372H662.643L674.319 43.968L674.207 37.64V28.4H676.811V48H674.291L662.587 32.46L662.727 38.62V48H660.095ZM353.996 85.28C352.428 85.28 351.056 84.9627 349.88 84.328C348.704 83.6747 347.789 82.76 347.136 81.584C346.501 80.408 346.184 79.036 346.184 77.468V65.4H348.844V77.524C348.844 79.1853 349.292 80.4827 350.188 81.416C351.084 82.3493 352.353 82.816 353.996 82.816C355.657 82.816 356.945 82.3493 357.86 81.416C358.775 80.4827 359.232 79.1853 359.232 77.524V65.4H361.892V77.468C361.892 79.036 361.565 80.408 360.912 81.584C360.277 82.76 359.363 83.6747 358.168 84.328C356.973 84.9627 355.583 85.28 353.996 85.28ZM366.45 85V65.372H368.998L380.674 80.968L380.562 74.64V65.4H383.166V85H380.646L368.942 69.46L369.082 75.62V85H366.45ZM387.915 85V65.4H395.643C397.547 65.4 399.227 65.8107 400.683 66.632C402.158 67.4347 403.296 68.5733 404.099 70.048C404.92 71.5227 405.331 73.2213 405.331 75.144C405.331 77.0853 404.92 78.8027 404.099 80.296C403.296 81.7893 402.158 82.9467 400.683 83.768C399.227 84.5893 397.547 85 395.643 85H387.915ZM395.615 82.592C397.034 82.592 398.266 82.2933 399.311 81.696C400.375 81.08 401.187 80.212 401.747 79.092C402.326 77.9533 402.615 76.6373 402.615 75.144C402.615 73.6693 402.326 72.3813 401.747 71.28C401.187 70.16 400.375 69.3013 399.311 68.704C398.266 68.1067 397.034 67.808 395.615 67.808H390.575V82.592H395.615ZM415.751 85V65.372H418.131L426.027 75.452L433.839 65.372H436.247V85H433.587V69.488L426.027 79.176L418.411 69.516V85H415.751ZM441.017 85V65.4H453.925V67.78H443.677V73.744H453.141V76.124H443.677V82.592H454.345V85H441.017ZM471.634 85V75.956H460.63V85H457.97V65.4H460.63V73.548H471.634V65.4H474.294V85H471.634ZM479.052 85V65.4H486.752C488.152 65.4 489.384 65.6613 490.448 66.184C491.531 66.688 492.361 67.416 492.94 68.368C493.537 69.32 493.836 70.4213 493.836 71.672C493.836 73.128 493.444 74.3693 492.66 75.396C491.876 76.4227 490.793 77.1413 489.412 77.552L494.788 85H491.652L486.64 77.916H481.712V85H479.052ZM486.78 75.592C488.143 75.592 489.207 75.2467 489.972 74.556C490.737 73.8467 491.12 72.8853 491.12 71.672C491.12 70.4773 490.728 69.5347 489.944 68.844C489.179 68.1347 488.124 67.78 486.78 67.78H481.712V75.592H486.78ZM502.05 85L510.73 65.4H513.418L522.042 85H519.13L517.198 80.492H506.866L504.934 85H502.05ZM516.19 78.196L515.882 77.468L512.074 68.088L508.154 77.44L507.846 78.196H516.19ZM527.212 82.592H537.18V85H524.552V65.4H527.212V82.592ZM546.387 85.308C543.792 85.308 541.132 84.7667 538.407 83.684L539.387 81.164C540.899 81.7987 542.159 82.2373 543.167 82.48C544.194 82.7227 545.276 82.844 546.415 82.844C547.89 82.844 549.047 82.592 549.887 82.088C550.727 81.5653 551.147 80.8 551.147 79.792C551.147 78.8027 550.746 78.0747 549.943 77.608C549.14 77.1227 547.927 76.7027 546.303 76.348C544.044 75.8627 542.299 75.1813 541.067 74.304C539.835 73.408 539.219 72.12 539.219 70.44C539.219 68.76 539.872 67.4533 541.179 66.52C542.486 65.568 544.296 65.092 546.611 65.092C548.702 65.092 550.914 65.4747 553.247 66.24L552.491 68.788C550.288 67.9667 548.272 67.556 546.443 67.556C545.062 67.556 543.951 67.7987 543.111 68.284C542.29 68.7507 541.879 69.4693 541.879 70.44C541.879 71.1867 542.103 71.784 542.551 72.232C543.018 72.6613 543.578 72.988 544.231 73.212C544.884 73.436 545.799 73.6787 546.975 73.94C549.159 74.4253 550.848 75.1067 552.043 75.984C553.256 76.8427 553.863 78.112 553.863 79.792C553.863 81.584 553.172 82.956 551.791 83.908C550.428 84.8413 548.627 85.308 546.387 85.308Z" fill="black"/>
<rect width="202" height="113" transform="translate(724)" fill="#0009FF"/>
<path d="M775.479 9H743.812V40.6664H755.774C755.774 29.7837 764.596 20.9613 775.479 20.9613L775.479 9Z" fill="white"/>
<path d="M775.587 40.667H767.562C767.562 49.4116 760.473 56.5002 751.729 56.5002C760.473 56.5002 767.562 63.5889 767.562 72.3334H775.587V40.667Z" fill="white"/>
<path d="M743.812 72.3333V104H775.479V92.0381C764.596 92.0381 755.774 83.216 755.774 72.333L743.812 72.3333Z" fill="white"/>
<path d="M779.438 104V9H792.632C802.834 9 811.104 17.2704 811.104 27.472V85.5273C811.104 95.7292 802.834 103.999 792.632 103.999H779.438V104Z" fill="white"/>
<path d="M886.484 9H838.808C838.808 19.8811 829.985 28.7036 819.104 28.7036V84.2962C829.986 84.2962 838.808 93.1187 838.808 104H886.484C886.484 93.1187 895.307 84.2962 906.187 84.2962V28.7036C895.307 28.7036 886.484 19.8811 886.484 9ZM886.396 68.5022C884.962 69.9316 883.731 71.1675 882.565 72.333C880.006 74.8926 877.802 77.0962 874.649 80.2497H850.644L838.896 68.5022V44.4972C840.33 43.0679 841.561 41.8319 842.727 40.6665C845.287 38.1068 847.49 35.9033 850.644 32.7497H874.649L886.396 44.4972V68.5022Z" fill="white"/>
<path d="M71.2335 173V153.4H84.1415V155.78H73.8935V161.744H83.3575V164.124H73.8935V170.592H84.5615V173H71.2335ZM88.1866 173V153.4H95.8866C97.2866 153.4 98.5186 153.661 99.5826 154.184C100.665 154.688 101.496 155.416 102.075 156.368C102.672 157.32 102.971 158.421 102.971 159.672C102.971 161.128 102.579 162.369 101.795 163.396C101.011 164.423 99.928 165.141 98.5466 165.552L103.923 173H100.787L95.7746 165.916H90.8466V173H88.1866ZM95.9146 163.592C97.2773 163.592 98.3413 163.247 99.1066 162.556C99.872 161.847 100.255 160.885 100.255 159.672C100.255 158.477 99.8626 157.535 99.0786 156.844C98.3133 156.135 97.2586 155.78 95.9146 155.78H90.8466V163.592H95.9146ZM107.109 173V153.4H120.017V155.78H109.769V162.444H119.205V164.824H109.769V173H107.109ZM132.317 173.308C130.283 173.308 128.481 172.888 126.913 172.048C125.364 171.208 124.16 170.023 123.301 168.492C122.443 166.961 122.013 165.197 122.013 163.2C122.013 161.203 122.443 159.439 123.301 157.908C124.16 156.377 125.364 155.192 126.913 154.352C128.481 153.512 130.283 153.092 132.317 153.092C134.333 153.092 136.116 153.512 137.665 154.352C139.215 155.192 140.419 156.377 141.277 157.908C142.136 159.439 142.565 161.203 142.565 163.2C142.565 165.197 142.136 166.961 141.277 168.492C140.419 170.023 139.215 171.208 137.665 172.048C136.116 172.888 134.333 173.308 132.317 173.308ZM132.317 170.844C133.848 170.844 135.173 170.536 136.293 169.92C137.432 169.304 138.309 168.417 138.925 167.26C139.541 166.103 139.849 164.749 139.849 163.2C139.849 161.651 139.541 160.297 138.925 159.14C138.309 157.983 137.432 157.096 136.293 156.48C135.173 155.864 133.848 155.556 132.317 155.556C130.768 155.556 129.424 155.864 128.285 156.48C127.147 157.096 126.269 157.983 125.653 159.14C125.037 160.297 124.729 161.651 124.729 163.2C124.729 164.749 125.037 166.103 125.653 167.26C126.269 168.417 127.147 169.304 128.285 169.92C129.424 170.536 130.768 170.844 132.317 170.844ZM148.925 170.592H158.893V173H146.265V153.4H148.925V170.592ZM169.893 173.308C167.802 173.308 165.954 172.888 164.349 172.048C162.762 171.189 161.53 169.995 160.653 168.464C159.794 166.915 159.365 165.123 159.365 163.088C159.365 161.035 159.813 159.261 160.709 157.768C161.605 156.256 162.855 155.099 164.461 154.296C166.085 153.493 167.951 153.092 170.061 153.092C172.394 153.092 174.578 153.521 176.613 154.38L175.717 156.844C174.671 156.377 173.719 156.051 172.861 155.864C172.002 155.659 171.069 155.556 170.061 155.556C167.559 155.556 165.599 156.228 164.181 157.572C162.781 158.897 162.081 160.736 162.081 163.088C162.081 165.515 162.781 167.419 164.181 168.8C165.581 170.181 167.503 170.872 169.949 170.872C171.685 170.872 173.225 170.62 174.569 170.116V164.572H169.165V162.192H177.089V171.628C174.923 172.748 172.525 173.308 169.893 173.308ZM181.101 173V153.4H188.801C190.201 153.4 191.433 153.661 192.497 154.184C193.579 154.688 194.41 155.416 194.989 156.368C195.586 157.32 195.885 158.421 195.885 159.672C195.885 161.128 195.493 162.369 194.709 163.396C193.925 164.423 192.842 165.141 191.461 165.552L196.837 173H193.701L188.689 165.916H183.761V173H181.101ZM188.829 163.592C190.191 163.592 191.255 163.247 192.021 162.556C192.786 161.847 193.169 160.885 193.169 159.672C193.169 158.477 192.777 157.535 191.993 156.844C191.227 156.135 190.173 155.78 188.829 155.78H183.761V163.592H188.829ZM200.023 173V153.4H212.931V155.78H202.683V161.744H212.147V164.124H202.683V170.592H213.351V173H200.023ZM216.976 173V153.4H219.636V173H216.976ZM233.653 173.308C231.619 173.308 229.817 172.888 228.249 172.048C226.7 171.189 225.496 169.985 224.637 168.436C223.779 166.887 223.349 165.104 223.349 163.088C223.349 161.109 223.779 159.364 224.637 157.852C225.496 156.34 226.709 155.173 228.277 154.352C229.845 153.512 231.647 153.092 233.681 153.092C235.94 153.092 238.105 153.521 240.177 154.38L239.253 156.844C238.171 156.377 237.209 156.051 236.369 155.864C235.529 155.659 234.652 155.556 233.737 155.556C232.169 155.556 230.807 155.864 229.649 156.48C228.492 157.077 227.605 157.945 226.989 159.084C226.373 160.223 226.065 161.557 226.065 163.088C226.065 164.712 226.383 166.112 227.017 167.288C227.671 168.445 228.567 169.332 229.705 169.948C230.844 170.545 232.151 170.844 233.625 170.844C234.708 170.844 235.688 170.732 236.565 170.508C237.461 170.265 238.432 169.855 239.477 169.276L240.541 171.684C239.253 172.3 238.096 172.729 237.069 172.972C236.043 173.196 234.904 173.308 233.653 173.308ZM257.108 173V163.956H246.104V173H243.444V153.4H246.104V161.548H257.108V153.4H259.768V173H257.108ZM268.602 173L277.282 153.4H279.97L288.594 173H285.682L283.75 168.492H273.418L271.486 173H268.602ZM282.742 166.196L282.434 165.468L278.626 156.088L274.706 165.44L274.398 166.196H282.742ZM291.105 173V153.4H299.085C301.101 153.4 302.697 153.848 303.873 154.744C305.067 155.621 305.665 156.825 305.665 158.356C305.665 160.111 304.713 161.604 302.809 162.836C304.022 163.265 304.955 163.909 305.609 164.768C306.262 165.608 306.589 166.541 306.589 167.568C306.589 168.669 306.29 169.631 305.693 170.452C305.114 171.255 304.283 171.88 303.201 172.328C302.118 172.776 300.849 173 299.393 173H291.105ZM299.589 170.62C300.933 170.62 301.987 170.34 302.753 169.78C303.518 169.22 303.901 168.455 303.901 167.484C303.901 166.495 303.518 165.72 302.753 165.16C301.987 164.6 300.933 164.32 299.589 164.32H293.765V170.62H299.589ZM300.485 162.024C301.306 161.613 301.941 161.109 302.389 160.512C302.855 159.915 303.089 159.271 303.089 158.58C303.089 157.665 302.753 156.965 302.081 156.48C301.427 155.995 300.475 155.752 299.225 155.752H293.765V162.024H300.485ZM319.655 173.308C317.564 173.308 315.716 172.888 314.111 172.048C312.524 171.189 311.292 169.995 310.415 168.464C309.556 166.915 309.127 165.123 309.127 163.088C309.127 161.035 309.575 159.261 310.471 157.768C311.367 156.256 312.617 155.099 314.223 154.296C315.847 153.493 317.713 153.092 319.823 153.092C322.156 153.092 324.34 153.521 326.375 154.38L325.479 156.844C324.433 156.377 323.481 156.051 322.623 155.864C321.764 155.659 320.831 155.556 319.823 155.556C317.321 155.556 315.361 156.228 313.943 157.572C312.543 158.897 311.843 160.736 311.843 163.088C311.843 165.515 312.543 167.419 313.943 168.8C315.343 170.181 317.265 170.872 319.711 170.872C321.447 170.872 322.987 170.62 324.331 170.116V164.572H318.927V162.192H326.851V171.628C324.685 172.748 322.287 173.308 319.655 173.308ZM330.862 173V153.4H343.77V155.78H333.522V161.744H342.986V164.124H333.522V170.592H344.19V173H330.862ZM354.284 173.308C351.689 173.308 349.029 172.767 346.304 171.684L347.284 169.164C348.796 169.799 350.056 170.237 351.064 170.48C352.09 170.723 353.173 170.844 354.312 170.844C355.786 170.844 356.944 170.592 357.784 170.088C358.624 169.565 359.044 168.8 359.044 167.792C359.044 166.803 358.642 166.075 357.84 165.608C357.037 165.123 355.824 164.703 354.2 164.348C351.941 163.863 350.196 163.181 348.964 162.304C347.732 161.408 347.116 160.12 347.116 158.44C347.116 156.76 347.769 155.453 349.076 154.52C350.382 153.568 352.193 153.092 354.508 153.092C356.598 153.092 358.81 153.475 361.144 154.24L360.388 156.788C358.185 155.967 356.169 155.556 354.34 155.556C352.958 155.556 351.848 155.799 351.008 156.284C350.186 156.751 349.776 157.469 349.776 158.44C349.776 159.187 350 159.784 350.448 160.232C350.914 160.661 351.474 160.988 352.128 161.212C352.781 161.436 353.696 161.679 354.872 161.94C357.056 162.425 358.745 163.107 359.94 163.984C361.153 164.843 361.76 166.112 361.76 167.792C361.76 169.584 361.069 170.956 359.688 171.908C358.325 172.841 356.524 173.308 354.284 173.308ZM374.474 173.308C372.439 173.308 370.638 172.888 369.07 172.048C367.52 171.189 366.316 169.985 365.458 168.436C364.599 166.887 364.17 165.104 364.17 163.088C364.17 161.109 364.599 159.364 365.458 157.852C366.316 156.34 367.53 155.173 369.098 154.352C370.666 153.512 372.467 153.092 374.502 153.092C376.76 153.092 378.926 153.521 380.998 154.38L380.074 156.844C378.991 156.377 378.03 156.051 377.19 155.864C376.35 155.659 375.472 155.556 374.558 155.556C372.99 155.556 371.627 155.864 370.47 156.48C369.312 157.077 368.426 157.945 367.81 159.084C367.194 160.223 366.886 161.557 366.886 163.088C366.886 164.712 367.203 166.112 367.838 167.288C368.491 168.445 369.387 169.332 370.526 169.948C371.664 170.545 372.971 170.844 374.446 170.844C375.528 170.844 376.508 170.732 377.386 170.508C378.282 170.265 379.252 169.855 380.298 169.276L381.362 171.684C380.074 172.3 378.916 172.729 377.89 172.972C376.863 173.196 375.724 173.308 374.474 173.308ZM397.929 173V163.956H386.925V173H384.265V153.4H386.925V161.548H397.929V153.4H400.589V173H397.929ZM408.007 170.592H417.975V173H405.347V153.4H408.007V170.592ZM428.751 173.308C426.716 173.308 424.915 172.888 423.347 172.048C421.798 171.208 420.594 170.023 419.735 168.492C418.876 166.961 418.447 165.197 418.447 163.2C418.447 161.203 418.876 159.439 419.735 157.908C420.594 156.377 421.798 155.192 423.347 154.352C424.915 153.512 426.716 153.092 428.751 153.092C430.767 153.092 432.55 153.512 434.099 154.352C435.648 155.192 436.852 156.377 437.711 157.908C438.57 159.439 438.999 161.203 438.999 163.2C438.999 165.197 438.57 166.961 437.711 168.492C436.852 170.023 435.648 171.208 434.099 172.048C432.55 172.888 430.767 173.308 428.751 173.308ZM428.751 170.844C430.282 170.844 431.607 170.536 432.727 169.92C433.866 169.304 434.743 168.417 435.359 167.26C435.975 166.103 436.283 164.749 436.283 163.2C436.283 161.651 435.975 160.297 435.359 159.14C434.743 157.983 433.866 157.096 432.727 156.48C431.607 155.864 430.282 155.556 428.751 155.556C427.202 155.556 425.858 155.864 424.719 156.48C423.58 157.096 422.703 157.983 422.087 159.14C421.471 160.297 421.163 161.651 421.163 163.2C421.163 164.749 421.471 166.103 422.087 167.26C422.703 168.417 423.58 169.304 424.719 169.92C425.858 170.536 427.202 170.844 428.751 170.844ZM449.03 173.308C446.435 173.308 443.775 172.767 441.05 171.684L442.03 169.164C443.542 169.799 444.802 170.237 445.81 170.48C446.836 170.723 447.919 170.844 449.058 170.844C450.532 170.844 451.69 170.592 452.53 170.088C453.37 169.565 453.79 168.8 453.79 167.792C453.79 166.803 453.388 166.075 452.586 165.608C451.783 165.123 450.57 164.703 448.946 164.348C446.687 163.863 444.942 163.181 443.71 162.304C442.478 161.408 441.862 160.12 441.862 158.44C441.862 156.76 442.515 155.453 443.822 154.52C445.128 153.568 446.939 153.092 449.254 153.092C451.344 153.092 453.556 153.475 455.89 154.24L455.134 156.788C452.931 155.967 450.915 155.556 449.086 155.556C447.704 155.556 446.594 155.799 445.754 156.284C444.932 156.751 444.522 157.469 444.522 158.44C444.522 159.187 444.746 159.784 445.194 160.232C445.66 160.661 446.22 160.988 446.874 161.212C447.527 161.436 448.442 161.679 449.618 161.94C451.802 162.425 453.491 163.107 454.686 163.984C455.899 164.843 456.506 166.112 456.506 167.792C456.506 169.584 455.815 170.956 454.434 171.908C453.071 172.841 451.27 173.308 449.03 173.308ZM466.448 173.308C463.853 173.308 461.193 172.767 458.468 171.684L459.448 169.164C460.96 169.799 462.22 170.237 463.228 170.48C464.254 170.723 465.337 170.844 466.476 170.844C467.95 170.844 469.108 170.592 469.948 170.088C470.788 169.565 471.208 168.8 471.208 167.792C471.208 166.803 470.806 166.075 470.004 165.608C469.201 165.123 467.988 164.703 466.364 164.348C464.105 163.863 462.36 163.181 461.128 162.304C459.896 161.408 459.28 160.12 459.28 158.44C459.28 156.76 459.933 155.453 461.24 154.52C462.546 153.568 464.357 153.092 466.672 153.092C468.762 153.092 470.974 153.475 473.308 154.24L472.552 156.788C470.349 155.967 468.333 155.556 466.504 155.556C465.122 155.556 464.012 155.799 463.172 156.284C462.35 156.751 461.94 157.469 461.94 158.44C461.94 159.187 462.164 159.784 462.612 160.232C463.078 160.661 463.638 160.988 464.292 161.212C464.945 161.436 465.86 161.679 467.036 161.94C469.22 162.425 470.909 163.107 472.104 163.984C473.317 164.843 473.924 166.112 473.924 167.792C473.924 169.584 473.233 170.956 471.852 171.908C470.489 172.841 468.688 173.308 466.448 173.308ZM477.398 173V153.4H490.306V155.78H480.058V161.744H489.522V164.124H480.058V170.592H490.726V173H477.398ZM494.351 173V153.372H496.899L508.575 168.968L508.463 162.64V153.4H511.067V173H508.547L496.843 157.46L496.983 163.62V173H494.351ZM515.816 173V153.4H528.724V155.78H518.476V161.744H527.94V164.124H518.476V170.592H529.144V173H515.816ZM532.769 173V153.372H535.317L546.993 168.968L546.881 162.64V153.4H549.485V173H546.965L535.261 157.46L535.401 163.62V173H532.769ZM560.933 153.4H568.577C569.995 153.4 571.246 153.671 572.329 154.212C573.411 154.753 574.251 155.519 574.849 156.508C575.446 157.497 575.745 158.645 575.745 159.952C575.745 161.259 575.446 162.407 574.849 163.396C574.251 164.385 573.411 165.151 572.329 165.692C571.246 166.233 569.995 166.504 568.577 166.504H563.593V172.972H560.933V153.4ZM568.633 164.152C569.995 164.152 571.069 163.779 571.853 163.032C572.637 162.285 573.029 161.259 573.029 159.952C573.029 158.645 572.637 157.628 571.853 156.9C571.069 156.153 569.995 155.78 568.633 155.78H563.593V164.152H568.633ZM578.952 173V153.4H586.652C588.052 153.4 589.284 153.661 590.348 154.184C591.431 154.688 592.262 155.416 592.84 156.368C593.438 157.32 593.736 158.421 593.736 159.672C593.736 161.128 593.344 162.369 592.56 163.396C591.776 164.423 590.694 165.141 589.312 165.552L594.688 173H591.552L586.54 165.916H581.612V173H578.952ZM586.68 163.592C588.043 163.592 589.107 163.247 589.872 162.556C590.638 161.847 591.02 160.885 591.02 159.672C591.02 158.477 590.628 157.535 589.844 156.844C589.079 156.135 588.024 155.78 586.68 155.78H581.612V163.592H586.68ZM606.868 173.308C604.833 173.308 603.032 172.888 601.464 172.048C599.915 171.208 598.711 170.023 597.852 168.492C596.993 166.961 596.564 165.197 596.564 163.2C596.564 161.203 596.993 159.439 597.852 157.908C598.711 156.377 599.915 155.192 601.464 154.352C603.032 153.512 604.833 153.092 606.868 153.092C608.884 153.092 610.667 153.512 612.216 154.352C613.765 155.192 614.969 156.377 615.828 157.908C616.687 159.439 617.116 161.203 617.116 163.2C617.116 165.197 616.687 166.961 615.828 168.492C614.969 170.023 613.765 171.208 612.216 172.048C610.667 172.888 608.884 173.308 606.868 173.308ZM606.868 170.844C608.399 170.844 609.724 170.536 610.844 169.92C611.983 169.304 612.86 168.417 613.476 167.26C614.092 166.103 614.4 164.749 614.4 163.2C614.4 161.651 614.092 160.297 613.476 159.14C612.86 157.983 611.983 157.096 610.844 156.48C609.724 155.864 608.399 155.556 606.868 155.556C605.319 155.556 603.975 155.864 602.836 156.48C601.697 157.096 600.82 157.983 600.204 159.14C599.588 160.297 599.28 161.651 599.28 163.2C599.28 164.749 599.588 166.103 600.204 167.26C600.82 168.417 601.697 169.304 602.836 169.92C603.975 170.536 605.319 170.844 606.868 170.844ZM621.207 173.224C620.087 173.224 618.976 173.112 617.875 172.888V170.2C618.547 170.405 619.116 170.545 619.583 170.62C620.068 170.695 620.591 170.732 621.151 170.732C622.756 170.732 623.923 170.321 624.651 169.5C625.379 168.679 625.743 167.391 625.743 165.636V153.4H628.403V165.72C628.403 168.184 627.796 170.051 626.583 171.32C625.388 172.589 623.596 173.224 621.207 173.224ZM633.011 173V153.4H645.919V155.78H635.671V161.744H645.135V164.124H635.671V170.592H646.339V173H633.011ZM662.648 173L656.096 164.292H652.624V173H649.964V153.4H652.624V161.912H656.068L662.228 153.4H665.308L658.252 162.976L665.896 173H662.648ZM672.988 173V155.78H666.464V153.4H682.228V155.78H675.676V173H672.988ZM685.128 173V153.4H698.036V155.78H687.788V161.744H697.252V164.124H687.788V170.592H698.456V173H685.128ZM702.081 173V153.372H704.629L716.305 168.968L716.193 162.64V153.4H718.797V173H716.277L704.573 157.46L704.713 163.62V173H702.081ZM736.713 173.308C734.119 173.308 731.459 172.767 728.733 171.684L729.713 169.164C731.225 169.799 732.485 170.237 733.493 170.48C734.52 170.723 735.603 170.844 736.741 170.844C738.216 170.844 739.373 170.592 740.213 170.088C741.053 169.565 741.473 168.8 741.473 167.792C741.473 166.803 741.072 166.075 740.269 165.608C739.467 165.123 738.253 164.703 736.629 164.348C734.371 163.863 732.625 163.181 731.393 162.304C730.161 161.408 729.545 160.12 729.545 158.44C729.545 156.76 730.199 155.453 731.505 154.52C732.812 153.568 734.623 153.092 736.937 153.092C739.028 153.092 741.24 153.475 743.573 154.24L742.817 156.788C740.615 155.967 738.599 155.556 736.769 155.556C735.388 155.556 734.277 155.799 733.437 156.284C732.616 156.751 732.205 157.469 732.205 158.44C732.205 159.187 732.429 159.784 732.877 160.232C733.344 160.661 733.904 160.988 734.557 161.212C735.211 161.436 736.125 161.679 737.301 161.94C739.485 162.425 741.175 163.107 742.369 163.984C743.583 164.843 744.189 166.112 744.189 167.792C744.189 169.584 743.499 170.956 742.117 171.908C740.755 172.841 738.953 173.308 736.713 173.308ZM747.663 173V153.4H750.323V173H747.663ZM755.101 173V153.372H757.649L769.325 168.968L769.213 162.64V153.4H771.817V173H769.297L757.593 157.46L757.733 163.62V173H755.101ZM776.566 173V153.4H784.294C786.198 153.4 787.878 153.811 789.334 154.632C790.808 155.435 791.947 156.573 792.75 158.048C793.571 159.523 793.982 161.221 793.982 163.144C793.982 165.085 793.571 166.803 792.75 168.296C791.947 169.789 790.808 170.947 789.334 171.768C787.878 172.589 786.198 173 784.294 173H776.566ZM784.266 170.592C785.684 170.592 786.916 170.293 787.962 169.696C789.026 169.08 789.838 168.212 790.398 167.092C790.976 165.953 791.266 164.637 791.266 163.144C791.266 161.669 790.976 160.381 790.398 159.28C789.838 158.16 789.026 157.301 787.962 156.704C786.916 156.107 785.684 155.808 784.266 155.808H779.226V170.592H784.266ZM808.139 173L801.923 153.4H804.835L807.775 162.92L809.707 169.388L814.859 153.904H817.379L822.447 169.556L824.463 162.864L827.487 153.4H830.399L824.043 173H821.131L816.091 157.572L811.023 173H808.139ZM833.167 173V153.4H835.827V173H833.167ZM840.605 173V153.4H848.305C849.705 153.4 850.937 153.661 852.001 154.184C853.083 154.688 853.914 155.416 854.493 156.368C855.09 157.32 855.389 158.421 855.389 159.672C855.389 161.128 854.997 162.369 854.213 163.396C853.429 164.423 852.346 165.141 850.965 165.552L856.341 173H853.205L848.193 165.916H843.265V173H840.605ZM848.333 163.592C849.695 163.592 850.759 163.247 851.525 162.556C852.29 161.847 852.673 160.885 852.673 159.672C852.673 158.477 852.281 157.535 851.497 156.844C850.731 156.135 849.677 155.78 848.333 155.78H843.265V163.592H848.333ZM255.312 210V190.4H257.972V210H255.312ZM276.413 210V200.956H265.409V210H262.749V190.4H265.409V198.548H276.413V190.4H279.073V210H276.413ZM283.831 210V190.4H291.531C292.931 190.4 294.163 190.661 295.227 191.184C296.31 191.688 297.141 192.416 297.719 193.368C298.317 194.32 298.615 195.421 298.615 196.672C298.615 198.128 298.223 199.369 297.439 200.396C296.655 201.423 295.573 202.141 294.191 202.552L299.567 210H296.431L291.419 202.916H286.491V210H283.831ZM291.559 200.592C292.922 200.592 293.986 200.247 294.751 199.556C295.517 198.847 295.899 197.885 295.899 196.672C295.899 195.477 295.507 194.535 294.723 193.844C293.958 193.135 292.903 192.78 291.559 192.78H286.491V200.592H291.559ZM314.655 210L306.255 190.4H309.167L312.639 198.52L315.999 207.172L319.303 198.492L322.747 190.4H325.687L317.343 210H314.655ZM328.265 210V190.4H341.173V192.78H330.925V198.744H340.389V201.124H330.925V207.592H341.593V210H328.265ZM345.218 210V190.4H352.918C354.318 190.4 355.55 190.661 356.614 191.184C357.697 191.688 358.527 192.416 359.106 193.368C359.703 194.32 360.002 195.421 360.002 196.672C360.002 198.128 359.61 199.369 358.826 200.396C358.042 201.423 356.959 202.141 355.578 202.552L360.954 210H357.818L352.806 202.916H347.878V210H345.218ZM352.946 200.592C354.309 200.592 355.373 200.247 356.138 199.556C356.903 198.847 357.286 197.885 357.286 196.672C357.286 195.477 356.894 194.535 356.11 193.844C355.345 193.135 354.29 192.78 352.946 192.78H347.878V200.592H352.946ZM366.8 207.592H376.768V210H364.14V190.4H366.8V207.592ZM377.403 210L386.083 190.4H388.771L397.395 210H394.483L392.551 205.492H382.219L380.287 210H377.403ZM391.543 203.196L391.235 202.468L387.427 193.088L383.507 202.44L383.199 203.196H391.543ZM390.927 187.992C390.386 187.992 389.947 187.843 389.611 187.544C389.294 187.227 389.135 186.816 389.135 186.312C389.135 185.827 389.303 185.435 389.639 185.136C389.975 184.819 390.404 184.66 390.927 184.66C391.468 184.66 391.898 184.819 392.215 185.136C392.551 185.435 392.719 185.827 392.719 186.312C392.719 186.816 392.551 187.227 392.215 187.544C391.898 187.843 391.468 187.992 390.927 187.992ZM383.899 187.992C383.358 187.992 382.919 187.843 382.583 187.544C382.266 187.227 382.107 186.816 382.107 186.312C382.107 185.827 382.266 185.435 382.583 185.136C382.919 184.819 383.358 184.66 383.899 184.66C384.422 184.66 384.851 184.819 385.187 185.136C385.523 185.435 385.691 185.827 385.691 186.312C385.691 186.816 385.523 187.227 385.187 187.544C384.87 187.843 384.44 187.992 383.899 187.992ZM406.373 210.308C403.779 210.308 401.119 209.767 398.393 208.684L399.373 206.164C400.885 206.799 402.145 207.237 403.153 207.48C404.18 207.723 405.263 207.844 406.401 207.844C407.876 207.844 409.033 207.592 409.873 207.088C410.713 206.565 411.133 205.8 411.133 204.792C411.133 203.803 410.732 203.075 409.929 202.608C409.127 202.123 407.913 201.703 406.289 201.348C404.031 200.863 402.285 200.181 401.053 199.304C399.821 198.408 399.205 197.12 399.205 195.44C399.205 193.76 399.859 192.453 401.165 191.52C402.472 190.568 404.283 190.092 406.597 190.092C408.688 190.092 410.9 190.475 413.233 191.24L412.477 193.788C410.275 192.967 408.259 192.556 406.429 192.556C405.048 192.556 403.937 192.799 403.097 193.284C402.276 193.751 401.865 194.469 401.865 195.44C401.865 196.187 402.089 196.784 402.537 197.232C403.004 197.661 403.564 197.988 404.217 198.212C404.871 198.436 405.785 198.679 406.961 198.94C409.145 199.425 410.835 200.107 412.029 200.984C413.243 201.843 413.849 203.112 413.849 204.792C413.849 206.584 413.159 207.956 411.777 208.908C410.415 209.841 408.613 210.308 406.373 210.308ZM423.791 210.308C421.197 210.308 418.537 209.767 415.811 208.684L416.791 206.164C418.303 206.799 419.563 207.237 420.571 207.48C421.598 207.723 422.681 207.844 423.819 207.844C425.294 207.844 426.451 207.592 427.291 207.088C428.131 206.565 428.551 205.8 428.551 204.792C428.551 203.803 428.15 203.075 427.347 202.608C426.545 202.123 425.331 201.703 423.707 201.348C421.449 200.863 419.703 200.181 418.471 199.304C417.239 198.408 416.623 197.12 416.623 195.44C416.623 193.76 417.277 192.453 418.583 191.52C419.89 190.568 421.701 190.092 424.015 190.092C426.106 190.092 428.318 190.475 430.651 191.24L429.895 193.788C427.693 192.967 425.677 192.556 423.847 192.556C422.466 192.556 421.355 192.799 420.515 193.284C419.694 193.751 419.283 194.469 419.283 195.44C419.283 196.187 419.507 196.784 419.955 197.232C420.422 197.661 420.982 197.988 421.635 198.212C422.289 198.436 423.203 198.679 424.379 198.94C426.563 199.425 428.253 200.107 429.447 200.984C430.661 201.843 431.267 203.112 431.267 204.792C431.267 206.584 430.577 207.956 429.195 208.908C427.833 209.841 426.031 210.308 423.791 210.308ZM437.401 207.592H447.369V210H434.741V190.4H437.401V207.592ZM450.273 210V190.4H452.933V210H450.273ZM466.95 210.308C464.915 210.308 463.114 209.888 461.546 209.048C459.997 208.189 458.793 206.985 457.934 205.436C457.075 203.887 456.646 202.104 456.646 200.088C456.646 198.109 457.075 196.364 457.934 194.852C458.793 193.34 460.006 192.173 461.574 191.352C463.142 190.512 464.943 190.092 466.978 190.092C469.237 190.092 471.402 190.521 473.474 191.38L472.55 193.844C471.467 193.377 470.506 193.051 469.666 192.864C468.826 192.659 467.949 192.556 467.034 192.556C465.466 192.556 464.103 192.864 462.946 193.48C461.789 194.077 460.902 194.945 460.286 196.084C459.67 197.223 459.362 198.557 459.362 200.088C459.362 201.712 459.679 203.112 460.314 204.288C460.967 205.445 461.863 206.332 463.002 206.948C464.141 207.545 465.447 207.844 466.922 207.844C468.005 207.844 468.985 207.732 469.862 207.508C470.758 207.265 471.729 206.855 472.774 206.276L473.838 208.684C472.55 209.3 471.393 209.729 470.366 209.972C469.339 210.196 468.201 210.308 466.95 210.308ZM490.405 210V200.956H479.401V210H476.741V190.4H479.401V198.548H490.405V190.4H493.065V210H490.405ZM497.823 210V190.4H510.731V192.78H500.483V198.744H509.947V201.124H500.483V207.592H511.151V210H497.823ZM514.776 210V190.4H522.476C523.876 190.4 525.108 190.661 526.172 191.184C527.255 191.688 528.086 192.416 528.664 193.368C529.262 194.32 529.56 195.421 529.56 196.672C529.56 198.128 529.168 199.369 528.384 200.396C527.6 201.423 526.518 202.141 525.136 202.552L530.512 210H527.376L522.364 202.916H517.436V210H514.776ZM522.504 200.592C523.867 200.592 524.931 200.247 525.696 199.556C526.462 198.847 526.844 197.885 526.844 196.672C526.844 195.477 526.452 194.535 525.668 193.844C524.903 193.135 523.848 192.78 522.504 192.78H517.436V200.592H522.504ZM540.398 190.4H548.042C549.46 190.4 550.711 190.671 551.794 191.212C552.876 191.753 553.716 192.519 554.314 193.508C554.911 194.497 555.21 195.645 555.21 196.952C555.21 198.259 554.911 199.407 554.314 200.396C553.716 201.385 552.876 202.151 551.794 202.692C550.711 203.233 549.46 203.504 548.042 203.504H543.058V209.972H540.398V190.4ZM548.098 201.152C549.46 201.152 550.534 200.779 551.318 200.032C552.102 199.285 552.494 198.259 552.494 196.952C552.494 195.645 552.102 194.628 551.318 193.9C550.534 193.153 549.46 192.78 548.098 192.78H543.058V201.152H548.098ZM554.536 210L563.216 190.4H565.904L574.528 210H571.616L569.684 205.492H559.352L557.42 210H554.536ZM568.676 203.196L568.368 202.468L564.56 193.088L560.64 202.44L560.332 203.196H568.676ZM577.038 210V190.4H584.738C586.138 190.4 587.37 190.661 588.434 191.184C589.517 191.688 590.348 192.416 590.926 193.368C591.524 194.32 591.822 195.421 591.822 196.672C591.822 198.128 591.43 199.369 590.646 200.396C589.862 201.423 588.78 202.141 587.398 202.552L592.774 210H589.638L584.626 202.916H579.698V210H577.038ZM584.766 200.592C586.129 200.592 587.193 200.247 587.958 199.556C588.724 198.847 589.106 197.885 589.106 196.672C589.106 195.477 588.714 194.535 587.93 193.844C587.165 193.135 586.11 192.78 584.766 192.78H579.698V200.592H584.766ZM599.844 210V192.78H593.32V190.4H609.084V192.78H602.532V210H599.844ZM611.984 210V190.372H614.532L626.208 205.968L626.096 199.64V190.4H628.7V210H626.18L614.476 194.46L614.616 200.62V210H611.984ZM633.448 210V190.4H646.356V192.78H636.108V198.744H645.572V201.124H636.108V207.592H646.776V210H633.448ZM650.401 210V190.4H658.101C659.501 190.4 660.733 190.661 661.797 191.184C662.88 191.688 663.711 192.416 664.289 193.368C664.887 194.32 665.185 195.421 665.185 196.672C665.185 198.128 664.793 199.369 664.009 200.396C663.225 201.423 662.143 202.141 660.761 202.552L666.137 210H663.001L657.989 202.916H653.061V210H650.401ZM658.129 200.592C659.492 200.592 660.556 200.247 661.321 199.556C662.087 198.847 662.469 197.885 662.469 196.672C662.469 195.477 662.077 194.535 661.293 193.844C660.528 193.135 659.473 192.78 658.129 192.78H653.061V200.592H658.129ZM670.163 210.14C669.622 210.14 669.183 209.991 668.847 209.692C668.511 209.393 668.343 208.992 668.343 208.488C668.343 207.965 668.511 207.555 668.847 207.256C669.183 206.939 669.622 206.78 670.163 206.78C670.723 206.78 671.171 206.939 671.507 207.256C671.843 207.555 672.011 207.965 672.011 208.488C672.011 208.992 671.843 209.393 671.507 209.692C671.171 209.991 670.723 210.14 670.163 210.14Z" fill="black"/>
</svg>
