<svg width="21" height="22" viewBox="0 0 21 22" fill="none" xmlns="http://www.w3.org/2000/svg">
<path d="M13.0375 11.0394L16.6562 14.6582L20.275 11.0394L16.6563 7.42066L13.0375 11.0394Z" fill="black"/>
<path d="M2.5803 8.36873L9.33919 8.36872L11.8876 10.9171L10.1939 12.6108C9.63374 13.171 8.87369 13.4839 8.08208 13.4865L2.58029 13.4865L2.5803 8.36873Z" fill="black"/>
<path d="M6.60389 17.5326L12.5449 11.5916L14.0518 13.0986C15.2169 14.2636 15.2195 16.1545 14.0518 17.3222L10.2227 21.1514L6.60389 17.5326Z" fill="black"/>
<path d="M6.46527 4.46722L10.084 0.848448L14.0342 4.79858C15.1335 5.89789 15.1335 7.68098 14.0342 8.78028L12.4062 10.4082L6.46527 4.46722Z" fill="black"/>
</svg>
