<?xml version="1.0" encoding="UTF-8"?>
<svg xmlns="http://www.w3.org/2000/svg" version="1.1" viewBox="0 0 488.1 68.2">
  <g>
    <g id="Layer_1">
      <g>
        <g>
          <rect x="432.8" y="35.4" width="19.8" height="19.8"/>
          <path d="M452.7,0v32.5h-8.3c-6.4,0-11.6-5.2-11.6-11.6V0h19.8Z"/>
          <path d="M488.1,35.4v19.8h-21.6c-6,0-10.9-4.9-10.9-10.9v-8.9h32.5Z"/>
          <path d="M488,14l-18.5,18.5h-14v-9.3c0-3.1,1.2-6,3.4-8.2L474,0l14,14Z"/>
        </g>
        <g>
          <path d="M12.1,23v22.8c0,1.9.4,3.2,1.2,3.8.8.6,2.2.9,4.2.9s2.8,0,4.7-.2v5c-2,.1-3.7.2-5.2.2-2.8,0-4.8-.3-6.3-.8-1.4-.5-2.5-1.4-3.2-2.8-.7-1.3-1-3.3-1-5.9v-23.2H0v-4.2h6.5v-9.5h5.4l.2,9.5h10v4.2h-10Z"/>
          <path d="M59,31v24.2h-5.6v-22.4c0-3-.9-5.4-2.7-7.2-1.8-1.8-4.1-2.7-7.1-2.7s-6,1.3-8,3.8c-2,2.5-3,5.7-3,9.8v18.8h-5.7V5.8h5.7v23.6h.4c.5-3.5,1.9-6.3,4.2-8.5,2.4-2.2,5.3-3.2,8.7-3.2s7.1,1.2,9.5,3.7c2.4,2.5,3.6,5.7,3.6,9.7Z"/>
          <path d="M70.8,37.9c0,4.3,1.2,7.6,3.5,10,2.3,2.3,5.3,3.5,8.9,3.5s5.3-.8,7.3-2.5c1.9-1.7,3.1-3.8,3.7-6.5h5.8c-.5,4.2-2.3,7.5-5.4,10.1-3.1,2.5-6.9,3.8-11.4,3.8s-9.8-1.7-13.1-5-4.9-8.1-4.9-14.5.7-7.5,2.2-10.4c1.5-2.9,3.6-5.1,6.3-6.6,2.7-1.5,5.8-2.3,9.3-2.3s6.3.8,9,2.3c2.6,1.6,4.7,3.7,6.1,6.3,1.4,2.7,2.2,5.6,2.2,8.9v2.7h-29.5ZM70.8,34h23.7c-.2-3.5-1.4-6.3-3.4-8.3-2-2-4.8-3.1-8.2-3.1s-6.2,1-8.4,3c-2.2,2-3.4,4.8-3.7,8.4Z"/>
          <path d="M125,37.9c0,4.3,1.2,7.6,3.5,10,2.3,2.3,5.3,3.5,8.9,3.5s5.3-.8,7.3-2.5c1.9-1.7,3.1-3.8,3.7-6.5h5.8c-.5,4.2-2.3,7.5-5.4,10.1-3.1,2.5-6.9,3.8-11.4,3.8s-9.8-1.7-13.1-5-4.9-8.1-4.9-14.5.7-7.5,2.2-10.4c1.5-2.9,3.6-5.1,6.3-6.6,2.7-1.5,5.8-2.3,9.3-2.3s6.3.8,9,2.3c2.6,1.6,4.7,3.7,6.1,6.3,1.4,2.7,2.2,5.6,2.2,8.9v2.7h-29.5ZM125,34h23.7c-.2-3.5-1.4-6.3-3.4-8.3-2-2-4.8-3.1-8.2-3.1s-6.2,1-8.4,3c-2.2,2-3.4,4.8-3.7,8.4Z"/>
          <path d="M160.8,5.8h5.6v18.8c0,3.7,0,8.1-.1,13.4h.3c1.1-1.5,2.2-2.9,3.3-4,1.1-1.2,2.7-2.7,4.5-4.4l11.6-10.8h7.2l-7.5,6.9c-4.9,4.6-7.9,7.2-8.9,7.9v.2h1.5c2.7,0,4.9.7,6.5,2,1.6,1.3,2.8,3.1,3.6,5.4l4.8,14h-5.8l-4-11.3c-.8-2.1-1.6-3.5-2.4-4.3-.8-.8-2.2-1.1-4.1-1.1h-4.9l-5.6,5.2v11.5h-5.6V5.8Z"/>
          <path d="M194.6,43.6h5.8c.3,2.5,1.3,4.4,3.2,5.8,1.9,1.3,4.5,2,7.8,2s5.2-.5,6.8-1.6c1.7-1.1,2.5-2.5,2.5-4.3s-.4-2.3-1.2-3.1c-.8-.8-2.1-1.3-3.9-1.8l-10.7-2.5c-2.9-.6-5.2-1.8-6.9-3.4-1.7-1.6-2.5-3.7-2.5-6.2s1.3-6,4-8c2.6-2,6.3-2.9,10.9-2.9s8.7,1.1,11.5,3.4c2.8,2.3,4.2,5.4,4.2,9.3h-5.8c0-2.4-.9-4.3-2.7-5.7-1.8-1.4-4.2-2.1-7.3-2.1s-5.1.5-6.8,1.6c-1.7,1-2.5,2.4-2.5,4.2s.5,2.2,1.4,3.1c.9.9,2.2,1.5,3.7,1.9l10.5,2.4c3.4.8,5.9,1.9,7.4,3.4,1.5,1.5,2.3,3.5,2.3,6.2s-1.4,6.1-4.1,8.1c-2.7,2-6.4,3-11,3s-9.2-1.1-12.1-3.3c-2.9-2.2-4.5-5.3-4.7-9.4Z"/>
          <path d="M266.1,26.9c1.4,2.9,2,6.3,2,10.2s-.7,7.3-2,10.2c-1.4,2.9-3.3,5.2-5.8,6.8-2.5,1.6-5.4,2.4-8.6,2.4s-6.2-1.1-8.6-3.2c-2.4-2.1-4-4.9-4.8-8.5h-.3v23.4h-5.6V18.8h5.4l.3,10.6h.3c.8-3.5,2.4-6.4,4.8-8.5,2.5-2.2,5.4-3.2,8.6-3.2s6.1.8,8.6,2.4c2.5,1.6,4.4,3.9,5.8,6.8ZM262.4,37.1c0-4.3-1.1-7.8-3.3-10.4-2.3-2.6-5.2-3.9-8.9-3.9s-4.5.6-6.3,1.7c-1.8,1.1-3.3,2.7-4.3,4.5-1,1.9-1.5,4-1.5,6.2v3.7c0,2.3.5,4.4,1.5,6.2,1,1.9,2.5,3.4,4.3,4.5,1.8,1.1,3.9,1.7,6.3,1.7,3.7,0,6.6-1.3,8.9-3.9,2.2-2.6,3.3-6.1,3.3-10.4Z"/>
          <path d="M278.4,37.9c0,4.3,1.2,7.6,3.5,10,2.3,2.3,5.3,3.5,8.9,3.5s5.3-.8,7.3-2.5c1.9-1.7,3.1-3.8,3.7-6.5h5.8c-.5,4.2-2.3,7.5-5.4,10.1-3.1,2.5-6.9,3.8-11.4,3.8s-9.8-1.7-13.1-5c-3.3-3.3-4.9-8.1-4.9-14.5s.7-7.5,2.2-10.4c1.5-2.9,3.6-5.1,6.3-6.6,2.7-1.5,5.8-2.3,9.3-2.3s6.3.8,9,2.3c2.6,1.6,4.6,3.7,6.1,6.3,1.4,2.7,2.2,5.6,2.2,8.9v2.7h-29.5ZM278.4,34h23.7c-.2-3.5-1.4-6.3-3.4-8.3-2-2-4.8-3.1-8.2-3.1s-6.2,1-8.4,3c-2.2,2-3.4,4.8-3.7,8.4Z"/>
          <path d="M324.9,21.6c2.4-2.2,5.8-3.3,10.4-3.3v5.1c-3.8.2-6.8,1-9.1,2.4-2.2,1.4-3.8,3.4-4.9,6.1-1,2.6-1.5,6.1-1.5,10.4v13h-5.6V18.8h5.4l.2,13.8h.3c.8-5.1,2.4-8.8,4.8-11Z"/>
          <path d="M350.2,23v22.8c0,1.9.4,3.2,1.2,3.8.8.6,2.2.9,4.2.9s2.8,0,4.7-.2v5c-2,.1-3.7.2-5.2.2-2.8,0-4.8-.3-6.3-.8-1.4-.5-2.5-1.4-3.2-2.8-.7-1.3-1-3.3-1-5.9v-23.2h-6.5v-4.2h6.5v-9.5h5.4l.2,9.5h10v4.2h-10Z"/>
          <path d="M362.8,43.6h5.8c.3,2.5,1.3,4.4,3.2,5.8,1.9,1.3,4.5,2,7.8,2s5.2-.5,6.8-1.6c1.7-1.1,2.5-2.5,2.5-4.3s-.4-2.3-1.2-3.1c-.8-.8-2.1-1.3-3.9-1.8l-10.7-2.5c-2.9-.6-5.2-1.8-6.9-3.4-1.7-1.6-2.5-3.7-2.5-6.2s1.3-6,4-8c2.6-2,6.3-2.9,10.9-2.9s8.7,1.1,11.5,3.4c2.8,2.3,4.2,5.4,4.2,9.3h-5.8c0-2.4-.9-4.3-2.7-5.7-1.8-1.4-4.2-2.1-7.3-2.1s-5.1.5-6.8,1.6c-1.7,1-2.5,2.4-2.5,4.2s.5,2.2,1.4,3.1c.9.9,2.2,1.5,3.7,1.9l10.5,2.4c3.4.8,5.9,1.9,7.4,3.4,1.5,1.5,2.3,3.5,2.3,6.2s-1.4,6.1-4.1,8.1c-2.7,2-6.4,3-11,3s-9.2-1.1-12.1-3.3c-2.9-2.2-4.5-5.3-4.7-9.4Z"/>
        </g>
      </g>
    </g>
  </g>
</svg>