<svg width="680" height="80" viewBox="0 0 680 80" fill="none" xmlns="http://www.w3.org/2000/svg">
<rect x="10" width="162" height="35.9999" rx="8" fill="#D9D9D9"/>
<path d="M31.28 25.24C29.3733 25.24 27.4533 24.86 25.52 24.1L26.42 21.82C27.5 22.2733 28.3867 22.58 29.08 22.74C29.7733 22.9 30.5133 22.98 31.3 22.98C32.2067 22.98 32.92 22.8333 33.44 22.54C33.96 22.2333 34.22 21.76 34.22 21.12C34.22 20.5333 33.9733 20.0933 33.48 19.8C32.9867 19.4933 32.2333 19.24 31.22 19.04C29.58 18.6933 28.3267 18.1867 27.46 17.52C26.5933 16.8533 26.16 15.9133 26.16 14.7C26.16 13.46 26.6267 12.4933 27.56 11.8C28.4933 11.1067 29.8067 10.76 31.5 10.76C33.0467 10.76 34.64 11.0267 36.28 11.56L35.62 13.9C34.0733 13.3133 32.6467 13.02 31.34 13.02C29.5133 13.02 28.6 13.5733 28.6 14.68C28.6 15.1467 28.7467 15.52 29.04 15.8C29.3333 16.08 29.6933 16.2933 30.12 16.44C30.5467 16.5733 31.12 16.72 31.84 16.88C33.4 17.2133 34.6 17.7067 35.44 18.36C36.28 19.0133 36.7 19.9333 36.7 21.12C36.7 22.48 36.2 23.5067 35.2 24.2C34.2 24.8933 32.8933 25.24 31.28 25.24ZM43.9219 25.24C42.8685 25.24 41.9085 25.0467 41.0419 24.66C40.1752 24.26 39.4819 23.66 38.9619 22.86C38.4552 22.0467 38.2019 21.0533 38.2019 19.88C38.2019 18.84 38.4219 17.92 38.8619 17.12C39.3152 16.3067 39.9419 15.68 40.7419 15.24C41.5552 14.8 42.4885 14.58 43.5419 14.58C45.1019 14.58 46.3085 15.0333 47.1619 15.94C48.0285 16.8467 48.4619 18.14 48.4619 19.82C48.4619 20.02 48.4485 20.3333 48.4219 20.76H40.4619C40.6352 21.5867 41.0352 22.2133 41.6619 22.64C42.2885 23.0533 43.0485 23.26 43.9419 23.26C44.5419 23.26 45.0819 23.1933 45.5619 23.06C46.0552 22.9267 46.5819 22.7 47.1419 22.38L48.1219 24.28C46.8819 24.92 45.4819 25.24 43.9219 25.24ZM46.3019 19.06C46.2352 17.34 45.3219 16.48 43.5619 16.48C42.6952 16.48 41.9885 16.7067 41.4419 17.16C40.9085 17.6 40.5752 18.2333 40.4419 19.06H46.3019ZM50.5392 14.82H52.4792L52.7192 16.04C53.7059 15.1333 54.7792 14.68 55.9392 14.68C56.2459 14.68 56.5526 14.7067 56.8592 14.76L56.8392 16.9C56.4259 16.8067 56.0659 16.76 55.7592 16.76C54.6392 16.76 53.6659 17.1733 52.8392 18V25H50.5392V14.82ZM61.7666 25L57.3666 14.82H59.8666L61.7266 19.44L62.8866 22.6L64.0066 19.4L65.8066 14.82H68.3466L63.9666 25H61.7666ZM69.8556 25V14.82H72.1556V25H69.8556ZM71.0156 13.2C70.5756 13.2 70.2156 13.0733 69.9356 12.82C69.6556 12.5533 69.5156 12.22 69.5156 11.82C69.5156 11.4067 69.649 11.0733 69.9156 10.82C70.1956 10.5667 70.5623 10.44 71.0156 10.44C71.4556 10.44 71.809 10.5667 72.0756 10.82C72.3556 11.0733 72.4956 11.4067 72.4956 11.82C72.4956 12.22 72.3556 12.5533 72.0756 12.82C71.809 13.0733 71.4556 13.2 71.0156 13.2ZM79.9761 25.24C78.8428 25.24 77.8428 25.02 76.9761 24.58C76.1094 24.14 75.4361 23.5133 74.9561 22.7C74.4894 21.8867 74.2561 20.9467 74.2561 19.88C74.2561 18.7067 74.5228 17.72 75.0561 16.92C75.5894 16.12 76.2894 15.5333 77.1561 15.16C78.0228 14.7733 78.9694 14.58 79.9961 14.58C81.2228 14.58 82.3894 14.84 83.4961 15.36L82.6961 17.3C81.7628 16.8333 80.8428 16.6 79.9361 16.6C78.9494 16.6 78.1428 16.88 77.5161 17.44C76.9028 18 76.5961 18.8133 76.5961 19.88C76.5961 20.92 76.9094 21.74 77.5361 22.34C78.1628 22.9267 79.0161 23.22 80.0961 23.22C80.5761 23.22 81.0228 23.1533 81.4361 23.02C81.8628 22.8867 82.3228 22.68 82.8161 22.4L83.7361 24.32C82.6161 24.9333 81.3628 25.24 79.9761 25.24ZM90.2695 25.24C89.2162 25.24 88.2562 25.0467 87.3895 24.66C86.5229 24.26 85.8295 23.66 85.3095 22.86C84.8029 22.0467 84.5495 21.0533 84.5495 19.88C84.5495 18.84 84.7695 17.92 85.2095 17.12C85.6629 16.3067 86.2895 15.68 87.0895 15.24C87.9029 14.8 88.8362 14.58 89.8895 14.58C91.4495 14.58 92.6562 15.0333 93.5095 15.94C94.3762 16.8467 94.8095 18.14 94.8095 19.82C94.8095 20.02 94.7962 20.3333 94.7695 20.76H86.8095C86.9829 21.5867 87.3829 22.2133 88.0095 22.64C88.6362 23.0533 89.3962 23.26 90.2895 23.26C90.8895 23.26 91.4295 23.1933 91.9095 23.06C92.4029 22.9267 92.9295 22.7 93.4895 22.38L94.4695 24.28C93.2295 24.92 91.8295 25.24 90.2695 25.24ZM92.6495 19.06C92.5829 17.34 91.6695 16.48 89.9095 16.48C89.0429 16.48 88.3362 16.7067 87.7895 17.16C87.2562 17.6 86.9229 18.2333 86.7895 19.06H92.6495ZM108.555 25.24C107.075 25.24 105.768 24.9333 104.635 24.32C103.515 23.7067 102.642 22.8467 102.015 21.74C101.402 20.6333 101.095 19.36 101.095 17.92C101.095 16.5067 101.402 15.26 102.015 14.18C102.642 13.0867 103.522 12.2467 104.655 11.66C105.788 11.06 107.088 10.76 108.555 10.76C110.248 10.76 111.808 11.0467 113.235 11.62L112.455 13.86C111.668 13.54 110.988 13.32 110.415 13.2C109.855 13.08 109.248 13.02 108.595 13.02C107.022 13.02 105.788 13.4533 104.895 14.32C104.015 15.1867 103.575 16.3867 103.575 17.92C103.575 19.0133 103.788 19.94 104.215 20.7C104.642 21.46 105.228 22.0333 105.975 22.42C106.722 22.7933 107.575 22.98 108.535 22.98C109.295 22.98 109.975 22.9067 110.575 22.76C111.188 22.6 111.862 22.3133 112.595 21.9L113.535 24.1C112.602 24.54 111.768 24.84 111.035 25C110.315 25.16 109.488 25.24 108.555 25.24ZM115.188 25V10.6H117.488V25H115.188ZM125.268 25.24C124.121 25.24 123.121 25.02 122.268 24.58C121.415 24.14 120.755 23.52 120.288 22.72C119.821 21.9067 119.588 20.9667 119.588 19.9C119.588 18.8467 119.821 17.92 120.288 17.12C120.768 16.3067 121.435 15.68 122.288 15.24C123.155 14.8 124.161 14.58 125.308 14.58C126.441 14.58 127.428 14.8 128.268 15.24C129.121 15.68 129.781 16.3067 130.248 17.12C130.715 17.92 130.948 18.8467 130.948 19.9C130.948 20.9667 130.715 21.9067 130.248 22.72C129.781 23.52 129.115 24.14 128.248 24.58C127.395 25.02 126.401 25.24 125.268 25.24ZM125.268 23.22C126.321 23.22 127.141 22.9267 127.728 22.34C128.315 21.7533 128.608 20.94 128.608 19.9C128.608 18.8733 128.308 18.0667 127.708 17.48C127.121 16.8933 126.308 16.6 125.268 16.6C124.228 16.6 123.408 16.8933 122.808 17.48C122.221 18.0667 121.928 18.8733 121.928 19.9C121.928 20.94 122.221 21.7533 122.808 22.34C123.395 22.9267 124.215 23.22 125.268 23.22ZM135.239 14.82V21.1C135.239 21.7933 135.426 22.3267 135.799 22.7C136.173 23.06 136.659 23.24 137.259 23.24C137.739 23.24 138.239 23.1333 138.759 22.92C139.279 22.7067 139.766 22.4067 140.219 22.02V14.82H142.519V25H140.479L140.299 23.86C139.766 24.3 139.186 24.64 138.559 24.88C137.933 25.12 137.293 25.24 136.639 25.24C135.973 25.24 135.359 25.0933 134.799 24.8C134.239 24.5067 133.786 24.06 133.439 23.46C133.106 22.86 132.939 22.12 132.939 21.24V14.82H135.239ZM149.367 25.24C148.434 25.24 147.607 25.0133 146.887 24.56C146.167 24.1067 145.607 23.4733 145.207 22.66C144.821 21.8467 144.627 20.9267 144.627 19.9C144.627 18.86 144.841 17.94 145.267 17.14C145.694 16.3267 146.287 15.7 147.047 15.26C147.807 14.8067 148.681 14.58 149.667 14.58C150.747 14.58 151.821 14.8667 152.887 15.44V10.6H155.187V25H153.267L153.067 24.08C151.854 24.8533 150.621 25.24 149.367 25.24ZM146.967 19.9C146.967 20.9533 147.234 21.7733 147.767 22.36C148.301 22.9333 149.074 23.22 150.087 23.22C151.114 23.22 152.047 22.8867 152.887 22.22V17.38C152.007 16.86 151.081 16.6 150.107 16.6C149.107 16.6 148.334 16.8867 147.787 17.46C147.241 18.02 146.967 18.8333 146.967 19.9Z" fill="black"/>
<rect x="180" width="189" height="35.9999" rx="8" fill="#D9D9D9"/>
<path d="M196.58 25V11H198.72L204.02 17.62L209.24 11H211.42V25H209V14.74L204.02 20.94L199.02 14.76V25H196.58ZM221.088 25L220.868 23.9C219.774 24.7933 218.534 25.24 217.148 25.24C216.081 25.24 215.228 24.9667 214.588 24.42C213.961 23.8733 213.648 23.1333 213.648 22.2C213.648 20.2533 215.061 19.1933 217.888 19.02L220.748 18.84V18.44C220.761 17.8 220.561 17.3267 220.148 17.02C219.734 16.7 219.174 16.54 218.468 16.54C217.361 16.54 216.141 16.8733 214.808 17.54L214.028 15.6C214.721 15.28 215.468 15.0333 216.268 14.86C217.081 14.6733 217.861 14.58 218.608 14.58C219.941 14.58 221.014 14.9 221.828 15.54C222.641 16.1667 223.048 17.1 223.048 18.34V25H221.088ZM215.908 22.12C215.908 22.56 216.068 22.8933 216.388 23.12C216.721 23.3333 217.188 23.44 217.788 23.44C218.268 23.44 218.781 23.3333 219.328 23.12C219.874 22.8933 220.348 22.58 220.748 22.18V20.34L218.308 20.56C217.494 20.6267 216.888 20.7733 216.488 21C216.101 21.2267 215.908 21.6 215.908 22.12ZM225.637 14.82H227.577L227.817 16.04C228.804 15.1333 229.877 14.68 231.037 14.68C231.344 14.68 231.65 14.7067 231.957 14.76L231.937 16.9C231.524 16.8067 231.164 16.76 230.857 16.76C229.737 16.76 228.764 17.1733 227.937 18V25H225.637V14.82ZM233.84 25V10.6H236.14V18.74H237.86L240.72 14.82H243.4L239.82 19.66L243.68 25H240.92L237.92 20.74H236.14V25H233.84ZM249.488 25.24C248.435 25.24 247.475 25.0467 246.608 24.66C245.742 24.26 245.048 23.66 244.528 22.86C244.022 22.0467 243.768 21.0533 243.768 19.88C243.768 18.84 243.988 17.92 244.428 17.12C244.882 16.3067 245.508 15.68 246.308 15.24C247.122 14.8 248.055 14.58 249.108 14.58C250.668 14.58 251.875 15.0333 252.728 15.94C253.595 16.8467 254.028 18.14 254.028 19.82C254.028 20.02 254.015 20.3333 253.988 20.76H246.028C246.202 21.5867 246.602 22.2133 247.228 22.64C247.855 23.0533 248.615 23.26 249.508 23.26C250.108 23.26 250.648 23.1933 251.128 23.06C251.622 22.9267 252.148 22.7 252.708 22.38L253.688 24.28C252.448 24.92 251.048 25.24 249.488 25.24ZM251.868 19.06C251.802 17.34 250.888 16.48 249.128 16.48C248.262 16.48 247.555 16.7067 247.008 17.16C246.475 17.6 246.142 18.2333 246.008 19.06H251.868ZM260.83 25.24C259.51 25.24 258.53 24.92 257.89 24.28C257.25 23.6267 256.93 22.6267 256.93 21.28V16.74H254.85V14.82H257.01L257.25 11.82H259.23V14.82H262.51V16.74H259.23V21.22C259.23 21.9933 259.363 22.52 259.63 22.8C259.91 23.08 260.423 23.22 261.17 23.22C261.597 23.22 262.05 23.1533 262.53 23.02V25.08C261.917 25.1867 261.35 25.24 260.83 25.24ZM264.25 25V14.82H266.55V25H264.25ZM265.41 13.2C264.97 13.2 264.61 13.0733 264.33 12.82C264.05 12.5533 263.91 12.22 263.91 11.82C263.91 11.4067 264.043 11.0733 264.31 10.82C264.59 10.5667 264.957 10.44 265.41 10.44C265.85 10.44 266.203 10.5667 266.47 10.82C266.75 11.0733 266.89 11.4067 266.89 11.82C266.89 12.22 266.75 12.5533 266.47 12.82C266.203 13.0733 265.85 13.2 265.41 13.2ZM276.671 25V18.7C276.671 18.0067 276.477 17.48 276.091 17.12C275.704 16.76 275.191 16.58 274.551 16.58C274.057 16.58 273.544 16.6867 273.011 16.9C272.491 17.1 271.997 17.3933 271.531 17.78V25H269.231V14.82H271.271L271.451 15.96C271.971 15.52 272.557 15.18 273.211 14.94C273.864 14.7 274.517 14.58 275.171 14.58C276.264 14.58 277.171 14.92 277.891 15.6C278.611 16.28 278.971 17.2733 278.971 18.58V25H276.671ZM286.135 29.52C284.535 29.52 282.962 29.1533 281.415 28.42L282.275 26.44C282.875 26.76 283.522 27.0133 284.215 27.2C284.908 27.4 285.568 27.5 286.195 27.5C287.182 27.5 287.922 27.24 288.415 26.72C288.908 26.2 289.155 25.44 289.155 24.44V24.06C288.115 24.66 286.995 24.96 285.795 24.96C284.835 24.96 283.988 24.74 283.255 24.3C282.535 23.86 281.975 23.2467 281.575 22.46C281.188 21.6733 280.995 20.7733 280.995 19.76C280.995 18.72 281.195 17.8133 281.595 17.04C282.008 16.2533 282.582 15.6467 283.315 15.22C284.048 14.7933 284.888 14.58 285.835 14.58C286.515 14.58 287.142 14.6667 287.715 14.84C288.288 15 288.842 15.26 289.375 15.62L289.555 14.82H291.455V24.34C291.455 26.0067 290.988 27.2867 290.055 28.18C289.135 29.0733 287.828 29.52 286.135 29.52ZM283.335 19.76C283.335 20.7333 283.608 21.5133 284.155 22.1C284.715 22.6733 285.475 22.96 286.435 22.96C287.422 22.96 288.328 22.68 289.155 22.12V17.36C288.342 16.84 287.448 16.58 286.475 16.58C285.515 16.58 284.748 16.86 284.175 17.42C283.615 17.98 283.335 18.76 283.335 19.76ZM305.801 25.24C304.321 25.24 303.014 24.9333 301.881 24.32C300.761 23.7067 299.888 22.8467 299.261 21.74C298.648 20.6333 298.341 19.36 298.341 17.92C298.341 16.5067 298.648 15.26 299.261 14.18C299.888 13.0867 300.768 12.2467 301.901 11.66C303.034 11.06 304.334 10.76 305.801 10.76C307.494 10.76 309.054 11.0467 310.481 11.62L309.701 13.86C308.914 13.54 308.234 13.32 307.661 13.2C307.101 13.08 306.494 13.02 305.841 13.02C304.268 13.02 303.034 13.4533 302.141 14.32C301.261 15.1867 300.821 16.3867 300.821 17.92C300.821 19.0133 301.034 19.94 301.461 20.7C301.888 21.46 302.474 22.0333 303.221 22.42C303.968 22.7933 304.821 22.98 305.781 22.98C306.541 22.98 307.221 22.9067 307.821 22.76C308.434 22.6 309.108 22.3133 309.841 21.9L310.781 24.1C309.848 24.54 309.014 24.84 308.281 25C307.561 25.16 306.734 25.24 305.801 25.24ZM312.434 25V10.6H314.734V25H312.434ZM322.514 25.24C321.368 25.24 320.368 25.02 319.514 24.58C318.661 24.14 318.001 23.52 317.534 22.72C317.068 21.9067 316.834 20.9667 316.834 19.9C316.834 18.8467 317.068 17.92 317.534 17.12C318.014 16.3067 318.681 15.68 319.534 15.24C320.401 14.8 321.408 14.58 322.554 14.58C323.688 14.58 324.674 14.8 325.514 15.24C326.368 15.68 327.028 16.3067 327.494 17.12C327.961 17.92 328.194 18.8467 328.194 19.9C328.194 20.9667 327.961 21.9067 327.494 22.72C327.028 23.52 326.361 24.14 325.494 24.58C324.641 25.02 323.648 25.24 322.514 25.24ZM322.514 23.22C323.568 23.22 324.388 22.9267 324.974 22.34C325.561 21.7533 325.854 20.94 325.854 19.9C325.854 18.8733 325.554 18.0667 324.954 17.48C324.368 16.8933 323.554 16.6 322.514 16.6C321.474 16.6 320.654 16.8933 320.054 17.48C319.468 18.0667 319.174 18.8733 319.174 19.9C319.174 20.94 319.468 21.7533 320.054 22.34C320.641 22.9267 321.461 23.22 322.514 23.22ZM332.485 14.82V21.1C332.485 21.7933 332.672 22.3267 333.045 22.7C333.419 23.06 333.905 23.24 334.505 23.24C334.985 23.24 335.485 23.1333 336.005 22.92C336.525 22.7067 337.012 22.4067 337.465 22.02V14.82H339.765V25H337.725L337.545 23.86C337.012 24.3 336.432 24.64 335.805 24.88C335.179 25.12 334.539 25.24 333.885 25.24C333.219 25.24 332.605 25.0933 332.045 24.8C331.485 24.5067 331.032 24.06 330.685 23.46C330.352 22.86 330.185 22.12 330.185 21.24V14.82H332.485ZM346.613 25.24C345.68 25.24 344.853 25.0133 344.133 24.56C343.413 24.1067 342.853 23.4733 342.453 22.66C342.067 21.8467 341.873 20.9267 341.873 19.9C341.873 18.86 342.087 17.94 342.513 17.14C342.94 16.3267 343.533 15.7 344.293 15.26C345.053 14.8067 345.927 14.58 346.913 14.58C347.993 14.58 349.067 14.8667 350.133 15.44V10.6H352.433V25H350.513L350.313 24.08C349.1 24.8533 347.867 25.24 346.613 25.24ZM344.213 19.9C344.213 20.9533 344.48 21.7733 345.013 22.36C345.547 22.9333 346.32 23.22 347.333 23.22C348.36 23.22 349.293 22.8867 350.133 22.22V17.38C349.253 16.86 348.327 16.6 347.353 16.6C346.353 16.6 345.58 16.8867 345.033 17.46C344.487 18.02 344.213 18.8333 344.213 19.9Z" fill="black"/>
<rect x="377" width="189" height="35.9999" rx="8" fill="#D9D9D9"/>
<path d="M393.58 25V11H395.72L401.02 17.62L406.24 11H408.42V25H406V14.74L401.02 20.94L396.02 14.76V25H393.58ZM418.088 25L417.868 23.9C416.774 24.7933 415.534 25.24 414.148 25.24C413.081 25.24 412.228 24.9667 411.588 24.42C410.961 23.8733 410.648 23.1333 410.648 22.2C410.648 20.2533 412.061 19.1933 414.888 19.02L417.748 18.84V18.44C417.761 17.8 417.561 17.3267 417.148 17.02C416.734 16.7 416.174 16.54 415.468 16.54C414.361 16.54 413.141 16.8733 411.808 17.54L411.028 15.6C411.721 15.28 412.468 15.0333 413.268 14.86C414.081 14.6733 414.861 14.58 415.608 14.58C416.941 14.58 418.014 14.9 418.828 15.54C419.641 16.1667 420.048 17.1 420.048 18.34V25H418.088ZM412.908 22.12C412.908 22.56 413.068 22.8933 413.388 23.12C413.721 23.3333 414.188 23.44 414.788 23.44C415.268 23.44 415.781 23.3333 416.328 23.12C416.874 22.8933 417.348 22.58 417.748 22.18V20.34L415.308 20.56C414.494 20.6267 413.888 20.7733 413.488 21C413.101 21.2267 412.908 21.6 412.908 22.12ZM422.637 14.82H424.577L424.817 16.04C425.804 15.1333 426.877 14.68 428.037 14.68C428.344 14.68 428.65 14.7067 428.957 14.76L428.937 16.9C428.524 16.8067 428.164 16.76 427.857 16.76C426.737 16.76 425.764 17.1733 424.937 18V25H422.637V14.82ZM430.84 25V10.6H433.14V18.74H434.86L437.72 14.82H440.4L436.82 19.66L440.68 25H437.92L434.92 20.74H433.14V25H430.84ZM446.488 25.24C445.435 25.24 444.475 25.0467 443.608 24.66C442.742 24.26 442.048 23.66 441.528 22.86C441.022 22.0467 440.768 21.0533 440.768 19.88C440.768 18.84 440.988 17.92 441.428 17.12C441.882 16.3067 442.508 15.68 443.308 15.24C444.122 14.8 445.055 14.58 446.108 14.58C447.668 14.58 448.875 15.0333 449.728 15.94C450.595 16.8467 451.028 18.14 451.028 19.82C451.028 20.02 451.015 20.3333 450.988 20.76H443.028C443.202 21.5867 443.602 22.2133 444.228 22.64C444.855 23.0533 445.615 23.26 446.508 23.26C447.108 23.26 447.648 23.1933 448.128 23.06C448.622 22.9267 449.148 22.7 449.708 22.38L450.688 24.28C449.448 24.92 448.048 25.24 446.488 25.24ZM448.868 19.06C448.802 17.34 447.888 16.48 446.128 16.48C445.262 16.48 444.555 16.7067 444.008 17.16C443.475 17.6 443.142 18.2333 443.008 19.06H448.868ZM457.83 25.24C456.51 25.24 455.53 24.92 454.89 24.28C454.25 23.6267 453.93 22.6267 453.93 21.28V16.74H451.85V14.82H454.01L454.25 11.82H456.23V14.82H459.51V16.74H456.23V21.22C456.23 21.9933 456.363 22.52 456.63 22.8C456.91 23.08 457.423 23.22 458.17 23.22C458.597 23.22 459.05 23.1533 459.53 23.02V25.08C458.917 25.1867 458.35 25.24 457.83 25.24ZM461.25 25V14.82H463.55V25H461.25ZM462.41 13.2C461.97 13.2 461.61 13.0733 461.33 12.82C461.05 12.5533 460.91 12.22 460.91 11.82C460.91 11.4067 461.043 11.0733 461.31 10.82C461.59 10.5667 461.957 10.44 462.41 10.44C462.85 10.44 463.203 10.5667 463.47 10.82C463.75 11.0733 463.89 11.4067 463.89 11.82C463.89 12.22 463.75 12.5533 463.47 12.82C463.203 13.0733 462.85 13.2 462.41 13.2ZM473.671 25V18.7C473.671 18.0067 473.477 17.48 473.091 17.12C472.704 16.76 472.191 16.58 471.551 16.58C471.057 16.58 470.544 16.6867 470.011 16.9C469.491 17.1 468.997 17.3933 468.531 17.78V25H466.231V14.82H468.271L468.451 15.96C468.971 15.52 469.557 15.18 470.211 14.94C470.864 14.7 471.517 14.58 472.171 14.58C473.264 14.58 474.171 14.92 474.891 15.6C475.611 16.28 475.971 17.2733 475.971 18.58V25H473.671ZM483.135 29.52C481.535 29.52 479.962 29.1533 478.415 28.42L479.275 26.44C479.875 26.76 480.522 27.0133 481.215 27.2C481.908 27.4 482.568 27.5 483.195 27.5C484.182 27.5 484.922 27.24 485.415 26.72C485.908 26.2 486.155 25.44 486.155 24.44V24.06C485.115 24.66 483.995 24.96 482.795 24.96C481.835 24.96 480.988 24.74 480.255 24.3C479.535 23.86 478.975 23.2467 478.575 22.46C478.188 21.6733 477.995 20.7733 477.995 19.76C477.995 18.72 478.195 17.8133 478.595 17.04C479.008 16.2533 479.582 15.6467 480.315 15.22C481.048 14.7933 481.888 14.58 482.835 14.58C483.515 14.58 484.142 14.6667 484.715 14.84C485.288 15 485.842 15.26 486.375 15.62L486.555 14.82H488.455V24.34C488.455 26.0067 487.988 27.2867 487.055 28.18C486.135 29.0733 484.828 29.52 483.135 29.52ZM480.335 19.76C480.335 20.7333 480.608 21.5133 481.155 22.1C481.715 22.6733 482.475 22.96 483.435 22.96C484.422 22.96 485.328 22.68 486.155 22.12V17.36C485.342 16.84 484.448 16.58 483.475 16.58C482.515 16.58 481.748 16.86 481.175 17.42C480.615 17.98 480.335 18.76 480.335 19.76ZM502.801 25.24C501.321 25.24 500.014 24.9333 498.881 24.32C497.761 23.7067 496.888 22.8467 496.261 21.74C495.648 20.6333 495.341 19.36 495.341 17.92C495.341 16.5067 495.648 15.26 496.261 14.18C496.888 13.0867 497.768 12.2467 498.901 11.66C500.034 11.06 501.334 10.76 502.801 10.76C504.494 10.76 506.054 11.0467 507.481 11.62L506.701 13.86C505.914 13.54 505.234 13.32 504.661 13.2C504.101 13.08 503.494 13.02 502.841 13.02C501.268 13.02 500.034 13.4533 499.141 14.32C498.261 15.1867 497.821 16.3867 497.821 17.92C497.821 19.0133 498.034 19.94 498.461 20.7C498.888 21.46 499.474 22.0333 500.221 22.42C500.968 22.7933 501.821 22.98 502.781 22.98C503.541 22.98 504.221 22.9067 504.821 22.76C505.434 22.6 506.108 22.3133 506.841 21.9L507.781 24.1C506.848 24.54 506.014 24.84 505.281 25C504.561 25.16 503.734 25.24 502.801 25.24ZM509.434 25V10.6H511.734V25H509.434ZM519.514 25.24C518.368 25.24 517.368 25.02 516.514 24.58C515.661 24.14 515.001 23.52 514.534 22.72C514.068 21.9067 513.834 20.9667 513.834 19.9C513.834 18.8467 514.068 17.92 514.534 17.12C515.014 16.3067 515.681 15.68 516.534 15.24C517.401 14.8 518.408 14.58 519.554 14.58C520.688 14.58 521.674 14.8 522.514 15.24C523.368 15.68 524.028 16.3067 524.494 17.12C524.961 17.92 525.194 18.8467 525.194 19.9C525.194 20.9667 524.961 21.9067 524.494 22.72C524.028 23.52 523.361 24.14 522.494 24.58C521.641 25.02 520.648 25.24 519.514 25.24ZM519.514 23.22C520.568 23.22 521.388 22.9267 521.974 22.34C522.561 21.7533 522.854 20.94 522.854 19.9C522.854 18.8733 522.554 18.0667 521.954 17.48C521.368 16.8933 520.554 16.6 519.514 16.6C518.474 16.6 517.654 16.8933 517.054 17.48C516.468 18.0667 516.174 18.8733 516.174 19.9C516.174 20.94 516.468 21.7533 517.054 22.34C517.641 22.9267 518.461 23.22 519.514 23.22ZM529.485 14.82V21.1C529.485 21.7933 529.672 22.3267 530.045 22.7C530.419 23.06 530.905 23.24 531.505 23.24C531.985 23.24 532.485 23.1333 533.005 22.92C533.525 22.7067 534.012 22.4067 534.465 22.02V14.82H536.765V25H534.725L534.545 23.86C534.012 24.3 533.432 24.64 532.805 24.88C532.179 25.12 531.539 25.24 530.885 25.24C530.219 25.24 529.605 25.0933 529.045 24.8C528.485 24.5067 528.032 24.06 527.685 23.46C527.352 22.86 527.185 22.12 527.185 21.24V14.82H529.485ZM543.613 25.24C542.68 25.24 541.853 25.0133 541.133 24.56C540.413 24.1067 539.853 23.4733 539.453 22.66C539.067 21.8467 538.873 20.9267 538.873 19.9C538.873 18.86 539.087 17.94 539.513 17.14C539.94 16.3267 540.533 15.7 541.293 15.26C542.053 14.8067 542.927 14.58 543.913 14.58C544.993 14.58 546.067 14.8667 547.133 15.44V10.6H549.433V25H547.513L547.313 24.08C546.1 24.8533 544.867 25.24 543.613 25.24ZM541.213 19.9C541.213 20.9533 541.48 21.7733 542.013 22.36C542.547 22.9333 543.32 23.22 544.333 23.22C545.36 23.22 546.293 22.8867 547.133 22.22V17.38C546.253 16.86 545.327 16.6 544.353 16.6C543.353 16.6 542.58 16.8867 542.033 17.46C541.487 18.02 541.213 18.8333 541.213 19.9Z" fill="black"/>
<rect x="574" width="95.9998" height="35.9999" rx="8" fill="#D9D9D9"/>
<path d="M590.58 11H596.18C597.207 11 598.107 11.2 598.88 11.6C599.667 12 600.273 12.56 600.7 13.28C601.14 14 601.36 14.8333 601.36 15.78C601.36 16.7267 601.14 17.56 600.7 18.28C600.273 19 599.667 19.56 598.88 19.96C598.107 20.3467 597.207 20.54 596.18 20.54H593.02V24.98H590.58V11ZM596.26 18.42C597.087 18.42 597.727 18.1867 598.18 17.72C598.647 17.2533 598.88 16.6067 598.88 15.78C598.88 14.9533 598.647 14.3133 598.18 13.86C597.727 13.3933 597.087 13.16 596.26 13.16H593.02V18.42H596.26ZM609.834 25L609.614 23.9C608.521 24.7933 607.281 25.24 605.894 25.24C604.827 25.24 603.974 24.9667 603.334 24.42C602.707 23.8733 602.394 23.1333 602.394 22.2C602.394 20.2533 603.807 19.1933 606.634 19.02L609.494 18.84V18.44C609.507 17.8 609.307 17.3267 608.894 17.02C608.481 16.7 607.921 16.54 607.214 16.54C606.107 16.54 604.887 16.8733 603.554 17.54L602.774 15.6C603.467 15.28 604.214 15.0333 605.014 14.86C605.827 14.6733 606.607 14.58 607.354 14.58C608.687 14.58 609.761 14.9 610.574 15.54C611.387 16.1667 611.794 17.1 611.794 18.34V25H609.834ZM604.654 22.12C604.654 22.56 604.814 22.8933 605.134 23.12C605.467 23.3333 605.934 23.44 606.534 23.44C607.014 23.44 607.527 23.3333 608.074 23.12C608.621 22.8933 609.094 22.58 609.494 22.18V20.34L607.054 20.56C606.241 20.6267 605.634 20.7733 605.234 21C604.847 21.2267 604.654 21.6 604.654 22.12ZM614.383 14.82H616.323L616.563 16.04C617.55 15.1333 618.623 14.68 619.783 14.68C620.09 14.68 620.396 14.7067 620.703 14.76L620.683 16.9C620.27 16.8067 619.91 16.76 619.603 16.76C618.483 16.76 617.51 17.1733 616.683 18V25H614.383V14.82ZM626.082 25.24C625.149 25.24 624.322 25.0133 623.602 24.56C622.882 24.1067 622.322 23.4733 621.922 22.66C621.535 21.8467 621.342 20.9267 621.342 19.9C621.342 18.86 621.555 17.94 621.982 17.14C622.409 16.3267 623.002 15.7 623.762 15.26C624.522 14.8067 625.395 14.58 626.382 14.58C627.462 14.58 628.535 14.8667 629.602 15.44V10.6H631.902V25H629.982L629.782 24.08C628.569 24.8533 627.335 25.24 626.082 25.24ZM623.682 19.9C623.682 20.9533 623.949 21.7733 624.482 22.36C625.015 22.9333 625.789 23.22 626.802 23.22C627.829 23.22 628.762 22.8867 629.602 22.22V17.38C628.722 16.86 627.795 16.6 626.822 16.6C625.822 16.6 625.049 16.8867 624.502 17.46C623.955 18.02 623.682 18.8333 623.682 19.9ZM639.659 25.24C638.512 25.24 637.512 25.02 636.659 24.58C635.805 24.14 635.145 23.52 634.679 22.72C634.212 21.9067 633.979 20.9667 633.979 19.9C633.979 18.8467 634.212 17.92 634.679 17.12C635.159 16.3067 635.825 15.68 636.679 15.24C637.545 14.8 638.552 14.58 639.699 14.58C640.832 14.58 641.819 14.8 642.659 15.24C643.512 15.68 644.172 16.3067 644.639 17.12C645.105 17.92 645.339 18.8467 645.339 19.9C645.339 20.9667 645.105 21.9067 644.639 22.72C644.172 23.52 643.505 24.14 642.639 24.58C641.785 25.02 640.792 25.24 639.659 25.24ZM639.659 23.22C640.712 23.22 641.532 22.9267 642.119 22.34C642.705 21.7533 642.999 20.94 642.999 19.9C642.999 18.8733 642.699 18.0667 642.099 17.48C641.512 16.8933 640.699 16.6 639.659 16.6C638.619 16.6 637.799 16.8933 637.199 17.48C636.612 18.0667 636.319 18.8733 636.319 19.9C636.319 20.94 636.612 21.7533 637.199 22.34C637.785 22.9267 638.605 23.22 639.659 23.22ZM652.115 25.24C650.795 25.24 649.815 24.92 649.175 24.28C648.535 23.6267 648.215 22.6267 648.215 21.28V16.74H646.135V14.82H648.295L648.535 11.82H650.515V14.82H653.795V16.74H650.515V21.22C650.515 21.9933 650.648 22.52 650.915 22.8C651.195 23.08 651.708 23.22 652.455 23.22C652.882 23.22 653.335 23.1533 653.815 23.02V25.08C653.202 25.1867 652.635 25.24 652.115 25.24Z" fill="black"/>
<rect x="43.5" y="44" width="196" height="35.9999" rx="8" fill="#D9D9D9"/>
<path d="M60.08 69V55H62.4L69.96 65.34L69.84 60.98V55H72.22V69H69.94L62.34 58.74L62.46 62.82V69H60.08ZM80.1158 69.24C78.9691 69.24 77.9691 69.02 77.1158 68.58C76.2624 68.14 75.6024 67.52 75.1358 66.72C74.6691 65.9067 74.4358 64.9667 74.4358 63.9C74.4358 62.8467 74.6691 61.92 75.1358 61.12C75.6158 60.3067 76.2824 59.68 77.1358 59.24C78.0024 58.8 79.0091 58.58 80.1558 58.58C81.2891 58.58 82.2758 58.8 83.1158 59.24C83.9691 59.68 84.6291 60.3067 85.0958 61.12C85.5624 61.92 85.7958 62.8467 85.7958 63.9C85.7958 64.9667 85.5624 65.9067 85.0958 66.72C84.6291 67.52 83.9624 68.14 83.0958 68.58C82.2424 69.02 81.2491 69.24 80.1158 69.24ZM80.1158 67.22C81.1691 67.22 81.9891 66.9267 82.5758 66.34C83.1624 65.7533 83.4558 64.94 83.4558 63.9C83.4558 62.8733 83.1558 62.0667 82.5558 61.48C81.9691 60.8933 81.1558 60.6 80.1158 60.6C79.0758 60.6 78.2558 60.8933 77.6558 61.48C77.0691 62.0667 76.7758 62.8733 76.7758 63.9C76.7758 64.94 77.0691 65.7533 77.6558 66.34C78.2424 66.9267 79.0624 67.22 80.1158 67.22ZM95.3269 69V62.7C95.3269 62.0067 95.1335 61.48 94.7469 61.12C94.3602 60.76 93.8469 60.58 93.2069 60.58C92.7135 60.58 92.2002 60.6867 91.6669 60.9C91.1469 61.1 90.6535 61.3933 90.1869 61.78V69H87.8869V58.82H89.9269L90.1069 59.96C90.6269 59.52 91.2135 59.18 91.8669 58.94C92.5202 58.7 93.1735 58.58 93.8269 58.58C94.9202 58.58 95.8269 58.92 96.5469 59.6C97.2669 60.28 97.6269 61.2733 97.6269 62.58V69H95.3269ZM99.8311 62.28H107.411V64.22H99.8311V62.28ZM109.943 55H115.543C116.57 55 117.47 55.2 118.243 55.6C119.03 56 119.637 56.56 120.063 57.28C120.503 58 120.723 58.8333 120.723 59.78C120.723 60.7267 120.503 61.56 120.063 62.28C119.637 63 119.03 63.56 118.243 63.96C117.47 64.3467 116.57 64.54 115.543 64.54H112.383V68.98H109.943V55ZM115.623 62.42C116.45 62.42 117.09 62.1867 117.543 61.72C118.01 61.2533 118.243 60.6067 118.243 59.78C118.243 58.9533 118.01 58.3133 117.543 57.86C117.09 57.3933 116.45 57.16 115.623 57.16H112.383V62.42H115.623ZM122.594 58.82H124.534L124.774 60.04C125.761 59.1333 126.834 58.68 127.994 58.68C128.301 58.68 128.607 58.7067 128.914 58.76L128.894 60.9C128.481 60.8067 128.121 60.76 127.814 60.76C126.694 60.76 125.721 61.1733 124.894 62V69H122.594V58.82ZM135.506 69.24C134.36 69.24 133.36 69.02 132.506 68.58C131.653 68.14 130.993 67.52 130.526 66.72C130.06 65.9067 129.826 64.9667 129.826 63.9C129.826 62.8467 130.06 61.92 130.526 61.12C131.006 60.3067 131.673 59.68 132.526 59.24C133.393 58.8 134.4 58.58 135.546 58.58C136.68 58.58 137.666 58.8 138.506 59.24C139.36 59.68 140.02 60.3067 140.486 61.12C140.953 61.92 141.186 62.8467 141.186 63.9C141.186 64.9667 140.953 65.9067 140.486 66.72C140.02 67.52 139.353 68.14 138.486 68.58C137.633 69.02 136.64 69.24 135.506 69.24ZM135.506 67.22C136.56 67.22 137.38 66.9267 137.966 66.34C138.553 65.7533 138.846 64.94 138.846 63.9C138.846 62.8733 138.546 62.0667 137.946 61.48C137.36 60.8933 136.546 60.6 135.506 60.6C134.466 60.6 133.646 60.8933 133.046 61.48C132.46 62.0667 132.166 62.8733 132.166 63.9C132.166 64.94 132.46 65.7533 133.046 66.34C133.633 66.9267 134.453 67.22 135.506 67.22ZM150.522 69V60.74H146.442V69H144.142V60.74H142.062V58.82H144.142V58.32C144.142 55.68 145.648 54.36 148.662 54.36C149.688 54.36 150.875 54.5 152.222 54.78V56.86C151.768 56.7133 151.242 56.5933 150.642 56.5C150.042 56.3933 149.442 56.34 148.842 56.34C147.988 56.34 147.375 56.5 147.002 56.82C146.628 57.1267 146.442 57.64 146.442 58.36V58.82H152.822V69H150.522ZM160.404 69.24C159.084 69.24 158.104 68.92 157.464 68.28C156.824 67.6267 156.504 66.6267 156.504 65.28V60.74H154.424V58.82H156.584L156.824 55.82H158.804V58.82H162.084V60.74H158.804V65.22C158.804 65.9933 158.937 66.52 159.204 66.8C159.484 67.08 159.997 67.22 160.744 67.22C161.171 67.22 161.624 67.1533 162.104 67.02V69.08C161.491 69.1867 160.924 69.24 160.404 69.24ZM175.688 69.24C174.208 69.24 172.901 68.9333 171.768 68.32C170.648 67.7067 169.774 66.8467 169.148 65.74C168.534 64.6333 168.228 63.36 168.228 61.92C168.228 60.5067 168.534 59.26 169.148 58.18C169.774 57.0867 170.654 56.2467 171.788 55.66C172.921 55.06 174.221 54.76 175.688 54.76C177.381 54.76 178.941 55.0467 180.368 55.62L179.588 57.86C178.801 57.54 178.121 57.32 177.548 57.2C176.988 57.08 176.381 57.02 175.728 57.02C174.154 57.02 172.921 57.4533 172.028 58.32C171.148 59.1867 170.708 60.3867 170.708 61.92C170.708 63.0133 170.921 63.94 171.348 64.7C171.774 65.46 172.361 66.0333 173.108 66.42C173.854 66.7933 174.708 66.98 175.668 66.98C176.428 66.98 177.108 66.9067 177.708 66.76C178.321 66.6 178.994 66.3133 179.728 65.9L180.668 68.1C179.734 68.54 178.901 68.84 178.168 69C177.448 69.16 176.621 69.24 175.688 69.24ZM182.32 69V54.6H184.62V69H182.32ZM192.401 69.24C191.254 69.24 190.254 69.02 189.401 68.58C188.548 68.14 187.888 67.52 187.421 66.72C186.954 65.9067 186.721 64.9667 186.721 63.9C186.721 62.8467 186.954 61.92 187.421 61.12C187.901 60.3067 188.568 59.68 189.421 59.24C190.288 58.8 191.294 58.58 192.441 58.58C193.574 58.58 194.561 58.8 195.401 59.24C196.254 59.68 196.914 60.3067 197.381 61.12C197.848 61.92 198.081 62.8467 198.081 63.9C198.081 64.9667 197.848 65.9067 197.381 66.72C196.914 67.52 196.248 68.14 195.381 68.58C194.528 69.02 193.534 69.24 192.401 69.24ZM192.401 67.22C193.454 67.22 194.274 66.9267 194.861 66.34C195.448 65.7533 195.741 64.94 195.741 63.9C195.741 62.8733 195.441 62.0667 194.841 61.48C194.254 60.8933 193.441 60.6 192.401 60.6C191.361 60.6 190.541 60.8933 189.941 61.48C189.354 62.0667 189.061 62.8733 189.061 63.9C189.061 64.94 189.354 65.7533 189.941 66.34C190.528 66.9267 191.348 67.22 192.401 67.22ZM202.372 58.82V65.1C202.372 65.7933 202.559 66.3267 202.932 66.7C203.305 67.06 203.792 67.24 204.392 67.24C204.872 67.24 205.372 67.1333 205.892 66.92C206.412 66.7067 206.899 66.4067 207.352 66.02V58.82H209.652V69H207.612L207.432 67.86C206.899 68.3 206.319 68.64 205.692 68.88C205.065 69.12 204.425 69.24 203.772 69.24C203.105 69.24 202.492 69.0933 201.932 68.8C201.372 68.5067 200.919 68.06 200.572 67.46C200.239 66.86 200.072 66.12 200.072 65.24V58.82H202.372ZM216.5 69.24C215.567 69.24 214.74 69.0133 214.02 68.56C213.3 68.1067 212.74 67.4733 212.34 66.66C211.953 65.8467 211.76 64.9267 211.76 63.9C211.76 62.86 211.973 61.94 212.4 61.14C212.827 60.3267 213.42 59.7 214.18 59.26C214.94 58.8067 215.813 58.58 216.8 58.58C217.88 58.58 218.953 58.8667 220.02 59.44V54.6H222.32V69H220.4L220.2 68.08C218.987 68.8533 217.753 69.24 216.5 69.24ZM214.1 63.9C214.1 64.9533 214.367 65.7733 214.9 66.36C215.433 66.9333 216.207 67.22 217.22 67.22C218.247 67.22 219.18 66.8867 220.02 66.22V61.38C219.14 60.86 218.213 60.6 217.24 60.6C216.24 60.6 215.467 60.8867 214.92 61.46C214.373 62.02 214.1 62.8333 214.1 63.9Z" fill="black"/>
<rect x="247.5" y="44" width="389" height="35.9999" rx="8" fill="#D9D9D9"/>
<path d="M267.64 69.24C266.2 69.24 264.653 68.8933 263 68.2L263.82 66.14C265.127 66.86 266.4 67.22 267.64 67.22C268.773 67.22 269.34 66.86 269.34 66.14C269.34 65.8067 269.167 65.5467 268.82 65.36C268.473 65.1733 267.92 64.9733 267.16 64.76L266.54 64.58C265.607 64.2867 264.867 63.92 264.32 63.48C263.773 63.04 263.5 62.3933 263.5 61.54C263.5 60.6067 263.847 59.88 264.54 59.36C265.247 58.84 266.193 58.58 267.38 58.58C268.82 58.58 270.193 58.86 271.5 59.42L270.78 61.44C270.167 61.1467 269.593 60.9267 269.06 60.78C268.54 60.62 268.013 60.54 267.48 60.54C266.973 60.54 266.567 60.6133 266.26 60.76C265.967 60.9067 265.82 61.14 265.82 61.46C265.82 61.82 266 62.1 266.36 62.3C266.72 62.4867 267.28 62.6867 268.04 62.9L268.62 63.08C269.567 63.3867 270.313 63.76 270.86 64.2C271.407 64.6267 271.68 65.26 271.68 66.1C271.68 67.1933 271.313 67.9933 270.58 68.5C269.86 68.9933 268.88 69.24 267.64 69.24ZM278.842 69.24C277.696 69.24 276.696 69.02 275.842 68.58C274.989 68.14 274.329 67.52 273.862 66.72C273.396 65.9067 273.162 64.9667 273.162 63.9C273.162 62.8467 273.396 61.92 273.862 61.12C274.342 60.3067 275.009 59.68 275.862 59.24C276.729 58.8 277.736 58.58 278.882 58.58C280.016 58.58 281.002 58.8 281.842 59.24C282.696 59.68 283.356 60.3067 283.822 61.12C284.289 61.92 284.522 62.8467 284.522 63.9C284.522 64.9667 284.289 65.9067 283.822 66.72C283.356 67.52 282.689 68.14 281.822 68.58C280.969 69.02 279.976 69.24 278.842 69.24ZM278.842 67.22C279.896 67.22 280.716 66.9267 281.302 66.34C281.889 65.7533 282.182 64.94 282.182 63.9C282.182 62.8733 281.882 62.0667 281.282 61.48C280.696 60.8933 279.882 60.6 278.842 60.6C277.802 60.6 276.982 60.8933 276.382 61.48C275.796 62.0667 275.502 62.8733 275.502 63.9C275.502 64.94 275.796 65.7533 276.382 66.34C276.969 66.9267 277.789 67.22 278.842 67.22ZM298.578 58.82H301.058L297.858 69H295.778L293.178 62.48L290.618 69H288.518L285.358 58.82H287.798L288.978 63.1L289.738 66.02L292.418 59.14H293.958L296.658 66.1L297.418 63.04L298.578 58.82ZM302.629 69V58.82H304.929V69H302.629ZM303.789 57.2C303.349 57.2 302.989 57.0733 302.709 56.82C302.429 56.5533 302.289 56.22 302.289 55.82C302.289 55.4067 302.422 55.0733 302.689 54.82C302.969 54.5667 303.336 54.44 303.789 54.44C304.229 54.44 304.582 54.5667 304.849 54.82C305.129 55.0733 305.269 55.4067 305.269 55.82C305.269 56.22 305.129 56.5533 304.849 56.82C304.582 57.0733 304.229 57.2 303.789 57.2ZM312.77 69.24C311.716 69.24 310.756 69.0467 309.89 68.66C309.023 68.26 308.33 67.66 307.81 66.86C307.303 66.0467 307.05 65.0533 307.05 63.88C307.05 62.84 307.27 61.92 307.71 61.12C308.163 60.3067 308.79 59.68 309.59 59.24C310.403 58.8 311.336 58.58 312.39 58.58C313.95 58.58 315.156 59.0333 316.01 59.94C316.876 60.8467 317.31 62.14 317.31 63.82C317.31 64.02 317.296 64.3333 317.27 64.76H309.31C309.483 65.5867 309.883 66.2133 310.51 66.64C311.136 67.0533 311.896 67.26 312.79 67.26C313.39 67.26 313.93 67.1933 314.41 67.06C314.903 66.9267 315.43 66.7 315.99 66.38L316.97 68.28C315.73 68.92 314.33 69.24 312.77 69.24ZM315.15 63.06C315.083 61.34 314.17 60.48 312.41 60.48C311.543 60.48 310.836 60.7067 310.29 61.16C309.756 61.6 309.423 62.2333 309.29 63.06H315.15ZM324.055 69V58.82H326.355V69H324.055ZM325.215 57.2C324.775 57.2 324.415 57.0733 324.135 56.82C323.855 56.5533 323.715 56.22 323.715 55.82C323.715 55.4067 323.848 55.0733 324.115 54.82C324.395 54.5667 324.762 54.44 325.215 54.44C325.655 54.44 326.008 54.5667 326.275 54.82C326.555 55.0733 326.695 55.4067 326.695 55.82C326.695 56.22 326.555 56.5533 326.275 56.82C326.008 57.0733 325.655 57.2 325.215 57.2ZM336.475 69V62.7C336.475 62.0067 336.282 61.48 335.895 61.12C335.509 60.76 334.995 60.58 334.355 60.58C333.862 60.58 333.349 60.6867 332.815 60.9C332.295 61.1 331.802 61.3933 331.335 61.78V69H329.035V58.82H331.075L331.255 59.96C331.775 59.52 332.362 59.18 333.015 58.94C333.669 58.7 334.322 58.58 334.975 58.58C336.069 58.58 336.975 58.92 337.695 59.6C338.415 60.28 338.775 61.2733 338.775 62.58V69H336.475ZM348.739 69L344.339 58.82H346.839L348.699 63.44L349.859 66.6L350.979 63.4L352.779 58.82H355.319L350.939 69H348.739ZM361.637 69.24C360.583 69.24 359.623 69.0467 358.757 68.66C357.89 68.26 357.197 67.66 356.677 66.86C356.17 66.0467 355.917 65.0533 355.917 63.88C355.917 62.84 356.137 61.92 356.577 61.12C357.03 60.3067 357.657 59.68 358.457 59.24C359.27 58.8 360.203 58.58 361.257 58.58C362.817 58.58 364.023 59.0333 364.877 59.94C365.743 60.8467 366.177 62.14 366.177 63.82C366.177 64.02 366.163 64.3333 366.137 64.76H358.177C358.35 65.5867 358.75 66.2133 359.377 66.64C360.003 67.0533 360.763 67.26 361.657 67.26C362.257 67.26 362.797 67.1933 363.277 67.06C363.77 66.9267 364.297 66.7 364.857 66.38L365.837 68.28C364.597 68.92 363.197 69.24 361.637 69.24ZM364.017 63.06C363.95 61.34 363.037 60.48 361.277 60.48C360.41 60.48 359.703 60.7067 359.157 61.16C358.623 61.6 358.29 62.2333 358.157 63.06H364.017ZM368.254 58.82H370.194L370.434 60.04C371.421 59.1333 372.494 58.68 373.654 58.68C373.961 58.68 374.267 58.7067 374.574 58.76L374.554 60.9C374.141 60.8067 373.781 60.76 373.474 60.76C372.354 60.76 371.381 61.1733 370.554 62V69H368.254V58.82ZM379.827 69.24C378.388 69.24 376.841 68.8933 375.188 68.2L376.007 66.14C377.314 66.86 378.588 67.22 379.827 67.22C380.961 67.22 381.528 66.86 381.528 66.14C381.528 65.8067 381.354 65.5467 381.008 65.36C380.661 65.1733 380.108 64.9733 379.348 64.76L378.728 64.58C377.794 64.2867 377.054 63.92 376.508 63.48C375.961 63.04 375.688 62.3933 375.688 61.54C375.688 60.6067 376.034 59.88 376.728 59.36C377.434 58.84 378.381 58.58 379.568 58.58C381.008 58.58 382.381 58.86 383.688 59.42L382.968 61.44C382.354 61.1467 381.781 60.9267 381.248 60.78C380.728 60.62 380.201 60.54 379.668 60.54C379.161 60.54 378.754 60.6133 378.448 60.76C378.154 60.9067 378.008 61.14 378.008 61.46C378.008 61.82 378.188 62.1 378.548 62.3C378.908 62.4867 379.468 62.6867 380.228 62.9L380.808 63.08C381.754 63.3867 382.501 63.76 383.048 64.2C383.594 64.6267 383.868 65.26 383.868 66.1C383.868 67.1933 383.501 67.9933 382.768 68.5C382.048 68.9933 381.068 69.24 379.827 69.24ZM391.07 69.24C389.937 69.24 388.937 69.02 388.07 68.58C387.203 68.14 386.53 67.5133 386.05 66.7C385.583 65.8867 385.35 64.9467 385.35 63.88C385.35 62.7067 385.617 61.72 386.15 60.92C386.683 60.12 387.383 59.5333 388.25 59.16C389.117 58.7733 390.063 58.58 391.09 58.58C392.317 58.58 393.483 58.84 394.59 59.36L393.79 61.3C392.857 60.8333 391.937 60.6 391.03 60.6C390.043 60.6 389.237 60.88 388.61 61.44C387.997 62 387.69 62.8133 387.69 63.88C387.69 64.92 388.003 65.74 388.63 66.34C389.257 66.9267 390.11 67.22 391.19 67.22C391.67 67.22 392.117 67.1533 392.53 67.02C392.957 66.8867 393.417 66.68 393.91 66.4L394.83 68.32C393.71 68.9333 392.457 69.24 391.07 69.24ZM403.995 69V62.7C403.995 62.02 403.802 61.5 403.415 61.14C403.028 60.7667 402.515 60.58 401.875 60.58C401.382 60.58 400.868 60.6867 400.335 60.9C399.802 61.1 399.308 61.3933 398.855 61.78V69H396.555V54.6H398.855V59.88C399.375 59.4667 399.948 59.1467 400.575 58.92C401.215 58.6933 401.855 58.58 402.495 58.58C403.588 58.58 404.495 58.92 405.215 59.6C405.935 60.28 406.295 61.2733 406.295 62.58V69H403.995ZM408.879 69V58.82H411.179V69H408.879ZM410.039 57.2C409.599 57.2 409.239 57.0733 408.959 56.82C408.679 56.5533 408.539 56.22 408.539 55.82C408.539 55.4067 408.672 55.0733 408.939 54.82C409.219 54.5667 409.586 54.44 410.039 54.44C410.479 54.44 410.832 54.5667 411.099 54.82C411.379 55.0733 411.519 55.4067 411.519 55.82C411.519 56.22 411.379 56.5533 411.099 56.82C410.832 57.0733 410.479 57.2 410.039 57.2ZM419.02 69.24C417.966 69.24 417.006 69.0467 416.14 68.66C415.273 68.26 414.58 67.66 414.06 66.86C413.553 66.0467 413.3 65.0533 413.3 63.88C413.3 62.84 413.52 61.92 413.96 61.12C414.413 60.3067 415.04 59.68 415.84 59.24C416.653 58.8 417.586 58.58 418.64 58.58C420.2 58.58 421.406 59.0333 422.26 59.94C423.126 60.8467 423.56 62.14 423.56 63.82C423.56 64.02 423.546 64.3333 423.52 64.76H415.56C415.733 65.5867 416.133 66.2133 416.76 66.64C417.386 67.0533 418.146 67.26 419.04 67.26C419.64 67.26 420.18 67.1933 420.66 67.06C421.153 66.9267 421.68 66.7 422.24 66.38L423.22 68.28C421.98 68.92 420.58 69.24 419.02 69.24ZM421.4 63.06C421.333 61.34 420.42 60.48 418.66 60.48C417.793 60.48 417.086 60.7067 416.54 61.16C416.006 61.6 415.673 62.2333 415.54 63.06H421.4ZM429.797 69.24C428.864 69.24 428.037 69.0133 427.317 68.56C426.597 68.1067 426.037 67.4733 425.637 66.66C425.25 65.8467 425.057 64.9267 425.057 63.9C425.057 62.86 425.27 61.94 425.697 61.14C426.124 60.3267 426.717 59.7 427.477 59.26C428.237 58.8067 429.11 58.58 430.097 58.58C431.177 58.58 432.25 58.8667 433.317 59.44V54.6H435.617V69H433.697L433.497 68.08C432.284 68.8533 431.05 69.24 429.797 69.24ZM427.397 63.9C427.397 64.9533 427.664 65.7733 428.197 66.36C428.73 66.9333 429.504 67.22 430.517 67.22C431.544 67.22 432.477 66.8867 433.317 66.22V61.38C432.437 60.86 431.51 60.6 430.537 60.6C429.537 60.6 428.764 60.8867 428.217 61.46C427.67 62.02 427.397 62.8333 427.397 63.9ZM443.434 69.24C442.38 69.24 441.42 69.0467 440.554 68.66C439.687 68.26 438.994 67.66 438.474 66.86C437.967 66.0467 437.714 65.0533 437.714 63.88C437.714 62.84 437.934 61.92 438.374 61.12C438.827 60.3067 439.454 59.68 440.254 59.24C441.067 58.8 442 58.58 443.054 58.58C444.614 58.58 445.82 59.0333 446.674 59.94C447.54 60.8467 447.974 62.14 447.974 63.82C447.974 64.02 447.96 64.3333 447.934 64.76H439.974C440.147 65.5867 440.547 66.2133 441.174 66.64C441.8 67.0533 442.56 67.26 443.454 67.26C444.054 67.26 444.594 67.1933 445.074 67.06C445.567 66.9267 446.094 66.7 446.654 66.38L447.634 68.28C446.394 68.92 444.994 69.24 443.434 69.24ZM445.814 63.06C445.747 61.34 444.834 60.48 443.074 60.48C442.207 60.48 441.5 60.7067 440.954 61.16C440.42 61.6 440.087 62.2333 439.954 63.06H445.814ZM457.491 69V62.7C457.491 62.0067 457.298 61.48 456.911 61.12C456.524 60.76 456.011 60.58 455.371 60.58C454.878 60.58 454.364 60.6867 453.831 60.9C453.311 61.1 452.818 61.3933 452.351 61.78V69H450.051V58.82H452.091L452.271 59.96C452.791 59.52 453.378 59.18 454.031 58.94C454.684 58.7 455.338 58.58 455.991 58.58C457.084 58.58 457.991 58.92 458.711 59.6C459.431 60.28 459.791 61.2733 459.791 62.58V69H457.491ZM467.535 69.24C466.482 69.24 465.522 69.0467 464.655 68.66C463.788 68.26 463.095 67.66 462.575 66.86C462.068 66.0467 461.815 65.0533 461.815 63.88C461.815 62.84 462.035 61.92 462.475 61.12C462.928 60.3067 463.555 59.68 464.355 59.24C465.168 58.8 466.102 58.58 467.155 58.58C468.715 58.58 469.922 59.0333 470.775 59.94C471.642 60.8467 472.075 62.14 472.075 63.82C472.075 64.02 472.062 64.3333 472.035 64.76H464.075C464.248 65.5867 464.648 66.2133 465.275 66.64C465.902 67.0533 466.662 67.26 467.555 67.26C468.155 67.26 468.695 67.1933 469.175 67.06C469.668 66.9267 470.195 66.7 470.755 66.38L471.735 68.28C470.495 68.92 469.095 69.24 467.535 69.24ZM469.915 63.06C469.848 61.34 468.935 60.48 467.175 60.48C466.308 60.48 465.602 60.7067 465.055 61.16C464.522 61.6 464.188 62.2333 464.055 63.06H469.915ZM481.593 69V62.7C481.593 62.0067 481.399 61.48 481.013 61.12C480.626 60.76 480.113 60.58 479.473 60.58C478.979 60.58 478.466 60.6867 477.933 60.9C477.413 61.1 476.919 61.3933 476.453 61.78V69H474.153V58.82H476.193L476.373 59.96C476.893 59.52 477.479 59.18 478.133 58.94C478.786 58.7 479.439 58.58 480.093 58.58C481.186 58.58 482.093 58.92 482.812 59.6C483.533 60.28 483.893 61.2733 483.893 62.58V69H481.593ZM491.385 69V55H493.825V69H491.385ZM504.093 69V62.7C504.093 62.0067 503.899 61.48 503.513 61.12C503.126 60.76 502.613 60.58 501.973 60.58C501.479 60.58 500.966 60.6867 500.433 60.9C499.913 61.1 499.419 61.3933 498.953 61.78V69H496.653V58.82H498.693L498.873 59.96C499.393 59.52 499.979 59.18 500.633 58.94C501.286 58.7 501.939 58.58 502.593 58.58C503.686 58.58 504.593 58.92 505.312 59.6C506.033 60.28 506.393 61.2733 506.393 62.58V69H504.093ZM513.76 69.24C512.44 69.24 511.46 68.92 510.82 68.28C510.18 67.6267 509.86 66.6267 509.86 65.28V60.74H507.78V58.82H509.94L510.18 55.82H512.16V58.82H515.44V60.74H512.16V65.22C512.16 65.9933 512.293 66.52 512.56 66.8C512.84 67.08 513.353 67.22 514.1 67.22C514.526 67.22 514.98 67.1533 515.46 67.02V69.08C514.846 69.1867 514.28 69.24 513.76 69.24ZM522.223 69.24C521.169 69.24 520.209 69.0467 519.343 68.66C518.476 68.26 517.783 67.66 517.263 66.86C516.756 66.0467 516.503 65.0533 516.503 63.88C516.503 62.84 516.723 61.92 517.163 61.12C517.616 60.3067 518.243 59.68 519.043 59.24C519.856 58.8 520.789 58.58 521.843 58.58C523.403 58.58 524.609 59.0333 525.463 59.94C526.329 60.8467 526.763 62.14 526.763 63.82C526.763 64.02 526.749 64.3333 526.723 64.76H518.763C518.936 65.5867 519.336 66.2133 519.963 66.64C520.589 67.0533 521.349 67.26 522.243 67.26C522.843 67.26 523.383 67.1933 523.863 67.06C524.356 66.9267 524.883 66.7 525.443 66.38L526.423 68.28C525.183 68.92 523.783 69.24 522.223 69.24ZM524.603 63.06C524.536 61.34 523.623 60.48 521.863 60.48C520.996 60.48 520.289 60.7067 519.743 61.16C519.209 61.6 518.876 62.2333 518.743 63.06H524.603ZM533.42 73.52C531.82 73.52 530.247 73.1533 528.7 72.42L529.56 70.44C530.16 70.76 530.807 71.0133 531.5 71.2C532.193 71.4 532.853 71.5 533.48 71.5C534.467 71.5 535.207 71.24 535.7 70.72C536.193 70.2 536.44 69.44 536.44 68.44V68.06C535.4 68.66 534.28 68.96 533.08 68.96C532.12 68.96 531.273 68.74 530.54 68.3C529.82 67.86 529.26 67.2467 528.86 66.46C528.473 65.6733 528.28 64.7733 528.28 63.76C528.28 62.72 528.48 61.8133 528.88 61.04C529.293 60.2533 529.867 59.6467 530.6 59.22C531.333 58.7933 532.173 58.58 533.12 58.58C533.8 58.58 534.427 58.6667 535 58.84C535.573 59 536.127 59.26 536.66 59.62L536.84 58.82H538.74V68.34C538.74 70.0067 538.273 71.2867 537.34 72.18C536.42 73.0733 535.113 73.52 533.42 73.52ZM530.62 63.76C530.62 64.7333 530.893 65.5133 531.44 66.1C532 66.6733 532.76 66.96 533.72 66.96C534.707 66.96 535.613 66.68 536.44 66.12V61.36C535.627 60.84 534.733 60.58 533.76 60.58C532.8 60.58 532.033 60.86 531.46 61.42C530.9 61.98 530.62 62.76 530.62 63.76ZM541.418 58.82H543.358L543.598 60.04C544.585 59.1333 545.658 58.68 546.818 58.68C547.125 58.68 547.431 58.7067 547.738 58.76L547.718 60.9C547.305 60.8067 546.945 60.76 546.638 60.76C545.518 60.76 544.545 61.1733 543.718 62V69H541.418V58.82ZM555.853 69L555.633 67.9C554.54 68.7933 553.3 69.24 551.913 69.24C550.847 69.24 549.993 68.9667 549.353 68.42C548.727 67.8733 548.413 67.1333 548.413 66.2C548.413 64.2533 549.827 63.1933 552.653 63.02L555.513 62.84V62.44C555.527 61.8 555.327 61.3267 554.913 61.02C554.5 60.7 553.94 60.54 553.233 60.54C552.127 60.54 550.907 60.8733 549.573 61.54L548.793 59.6C549.487 59.28 550.233 59.0333 551.033 58.86C551.847 58.6733 552.627 58.58 553.373 58.58C554.707 58.58 555.78 58.9 556.593 59.54C557.407 60.1667 557.813 61.1 557.813 62.34V69H555.853ZM550.673 66.12C550.673 66.56 550.833 66.8933 551.153 67.12C551.487 67.3333 551.953 67.44 552.553 67.44C553.033 67.44 553.547 67.3333 554.093 67.12C554.64 66.8933 555.113 66.58 555.513 66.18V64.34L553.073 64.56C552.26 64.6267 551.653 64.7733 551.253 65C550.867 65.2267 550.673 65.6 550.673 66.12ZM565.029 69.24C563.709 69.24 562.729 68.92 562.089 68.28C561.449 67.6267 561.129 66.6267 561.129 65.28V60.74H559.049V58.82H561.209L561.449 55.82H563.429V58.82H566.709V60.74H563.429V65.22C563.429 65.9933 563.562 66.52 563.829 66.8C564.109 67.08 564.622 67.22 565.369 67.22C565.796 67.22 566.249 67.1533 566.729 67.02V69.08C566.116 69.1867 565.549 69.24 565.029 69.24ZM568.449 69V58.82H570.749V69H568.449ZM569.609 57.2C569.169 57.2 568.809 57.0733 568.529 56.82C568.249 56.5533 568.109 56.22 568.109 55.82C568.109 55.4067 568.243 55.0733 568.509 54.82C568.789 54.5667 569.156 54.44 569.609 54.44C570.049 54.44 570.403 54.5667 570.669 54.82C570.949 55.0733 571.089 55.4067 571.089 55.82C571.089 56.22 570.949 56.5533 570.669 56.82C570.403 57.0733 570.049 57.2 569.609 57.2ZM578.53 69.24C577.383 69.24 576.383 69.02 575.53 68.58C574.677 68.14 574.017 67.52 573.55 66.72C573.083 65.9067 572.85 64.9667 572.85 63.9C572.85 62.8467 573.083 61.92 573.55 61.12C574.03 60.3067 574.697 59.68 575.55 59.24C576.417 58.8 577.423 58.58 578.57 58.58C579.703 58.58 580.69 58.8 581.53 59.24C582.383 59.68 583.043 60.3067 583.51 61.12C583.977 61.92 584.21 62.8467 584.21 63.9C584.21 64.9667 583.977 65.9067 583.51 66.72C583.043 67.52 582.377 68.14 581.51 68.58C580.657 69.02 579.663 69.24 578.53 69.24ZM578.53 67.22C579.583 67.22 580.403 66.9267 580.99 66.34C581.577 65.7533 581.87 64.94 581.87 63.9C581.87 62.8733 581.57 62.0667 580.97 61.48C580.383 60.8933 579.57 60.6 578.53 60.6C577.49 60.6 576.67 60.8933 576.07 61.48C575.483 62.0667 575.19 62.8733 575.19 63.9C575.19 64.94 575.483 65.7533 576.07 66.34C576.657 66.9267 577.477 67.22 578.53 67.22ZM593.741 69V62.7C593.741 62.0067 593.548 61.48 593.161 61.12C592.774 60.76 592.261 60.58 591.621 60.58C591.128 60.58 590.614 60.6867 590.081 60.9C589.561 61.1 589.068 61.3933 588.601 61.78V69H586.301V58.82H588.341L588.521 59.96C589.041 59.52 589.628 59.18 590.281 58.94C590.934 58.7 591.588 58.58 592.241 58.58C593.334 58.58 594.241 58.92 594.961 59.6C595.681 60.28 596.041 61.2733 596.041 62.58V69H593.741ZM603.785 69.24C602.732 69.24 601.772 69.0467 600.905 68.66C600.038 68.26 599.345 67.66 598.825 66.86C598.318 66.0467 598.065 65.0533 598.065 63.88C598.065 62.84 598.285 61.92 598.725 61.12C599.178 60.3067 599.805 59.68 600.605 59.24C601.418 58.8 602.352 58.58 603.405 58.58C604.965 58.58 606.172 59.0333 607.025 59.94C607.892 60.8467 608.325 62.14 608.325 63.82C608.325 64.02 608.312 64.3333 608.285 64.76H600.325C600.498 65.5867 600.898 66.2133 601.525 66.64C602.152 67.0533 602.912 67.26 603.805 67.26C604.405 67.26 604.945 67.1933 605.425 67.06C605.918 66.9267 606.445 66.7 607.005 66.38L607.985 68.28C606.745 68.92 605.345 69.24 603.785 69.24ZM606.165 63.06C606.098 61.34 605.185 60.48 603.425 60.48C602.558 60.48 601.852 60.7067 601.305 61.16C600.772 61.6 600.438 62.2333 600.305 63.06H606.165ZM617.843 69V62.7C617.843 62.0067 617.649 61.48 617.263 61.12C616.876 60.76 616.363 60.58 615.723 60.58C615.229 60.58 614.716 60.6867 614.183 60.9C613.663 61.1 613.169 61.3933 612.703 61.78V69H610.403V58.82H612.443L612.623 59.96C613.143 59.52 613.729 59.18 614.383 58.94C615.036 58.7 615.689 58.58 616.343 58.58C617.436 58.58 618.343 58.92 619.062 59.6C619.783 60.28 620.143 61.2733 620.143 62.58V69H617.843Z" fill="black"/>
</svg>
